<?xml version="1.0" encoding="utf-8"?>
<!-- Generator: Adobe Illustrator 27.5.0, SVG Export Plug-In . SVG Version: 6.00 Build 0)  -->
<svg version="1.1" xmlns="http://www.w3.org/2000/svg" xmlns:xlink="http://www.w3.org/1999/xlink" x="0px" y="0px"
	 viewBox="0 0 750 500" style="enable-background:new 0 0 750 500;" xml:space="preserve">
<g id="BACKGROUND">
	<rect style="fill:#FFFFFF;" width="750" height="500"/>
</g>
<g id="OBJECTS">
	<g>
		<g>
			<g>
				<path style="fill:#EDEEF7;" d="M143.132,196.553c2.123,2.788,4.593,5.381,7.423,7.699c2.831,2.317,5.861,4.225,9.014,5.756
					l5.006-8.337c2.958,1.348,6.047,2.263,9.182,2.764l-0.445,9.726c7.107,0.961,14.361,0.237,21.137-2.109l-2.358-9.446
					c2.974-1.111,5.822-2.619,8.454-4.525l6.555,7.184c2.788-2.124,5.381-4.593,7.698-7.423c2.317-2.831,4.225-5.861,5.756-9.014
					l-8.337-5.006c1.348-2.958,2.263-6.047,2.765-9.182l9.726,0.445c0.961-7.107,0.237-14.36-2.109-21.137l-9.446,2.358
					c-1.111-2.974-2.619-5.822-4.525-8.455l7.183-6.554c-2.124-2.788-4.593-5.381-7.423-7.699c-2.831-2.317-5.861-4.225-9.014-5.756
					l-5.006,8.337c-2.958-1.348-6.047-2.263-9.182-2.765l0.445-9.725c-7.107-0.961-14.36-0.237-21.137,2.109l2.358,9.446
					c-2.974,1.111-5.822,2.619-8.455,4.525l-6.555-7.183c-2.788,2.124-5.381,4.592-7.698,7.423c-2.317,2.831-4.225,5.86-5.756,9.014
					l8.337,5.006c-1.348,2.958-2.263,6.047-2.764,9.182l-9.726-0.445c-0.961,7.107-0.237,14.361,2.109,21.137l9.446-2.358
					c1.111,2.974,2.619,5.822,4.525,8.455L143.132,196.553z M162.448,154.991c7.695-9.402,21.555-10.785,30.957-3.09
					c9.402,7.696,10.785,21.555,3.089,30.957c-7.696,9.402-21.555,10.785-30.957,3.089
					C156.136,178.252,154.753,164.393,162.448,154.991z M168.27,159.756c5.064-6.187,14.184-7.097,20.371-2.033
					c6.187,5.064,7.097,14.185,2.033,20.371c-5.064,6.187-14.184,7.097-20.371,2.033
					C164.116,175.063,163.206,165.942,168.27,159.756z"/>
				<path style="fill:#EDEEF7;" d="M382.265,116.178c0.687,4.361,1.875,8.712,3.628,12.973c1.753,4.261,3.972,8.188,6.553,11.77
					l10.534-6.251c2.473,3.263,5.352,6.124,8.528,8.554l-6.307,10.517c7.305,5.313,15.78,8.848,24.696,10.297l3.032-11.882
					c3.961,0.546,8.02,0.576,12.079,0.038l2.973,11.883c4.361-0.687,8.712-1.875,12.973-3.628c4.261-1.753,8.188-3.972,11.77-6.553
					l-6.251-10.534c3.263-2.473,6.124-5.352,8.554-8.528l10.517,6.307c5.313-7.305,8.847-15.78,10.297-24.696l-11.882-3.032
					c0.546-3.961,0.576-8.02,0.038-12.079l11.882-2.973c-0.687-4.361-1.875-8.712-3.628-12.973
					c-1.754-4.261-3.972-8.188-6.553-11.77l-10.534,6.251c-2.474-3.262-5.352-6.124-8.528-8.554l6.307-10.517
					c-7.305-5.314-15.78-8.847-24.696-10.297l-3.032,11.883c-3.962-0.546-8.02-0.577-12.079-0.038l-2.973-11.883
					c-4.361,0.688-8.712,1.875-12.973,3.628c-4.261,1.753-8.188,3.972-11.77,6.553l6.251,10.534
					c-3.263,2.473-6.124,5.352-8.554,8.528L392.6,73.399c-5.314,7.305-8.848,15.78-10.297,24.696l11.883,3.032
					c-0.546,3.962-0.577,8.02-0.038,12.079L382.265,116.178z M428.528,81.645c14.152-5.824,30.346,0.929,36.17,15.081
					c5.823,14.152-0.929,30.346-15.081,36.169c-14.153,5.823-30.346-0.929-36.169-15.081
					C407.623,103.662,414.375,87.468,428.528,81.645z M432.133,90.408c9.313-3.832,19.969,0.611,23.801,9.924
					c3.832,9.313-0.611,19.969-9.924,23.801c-9.313,3.832-19.969-0.611-23.801-9.924C418.377,104.896,422.82,94.239,432.133,90.408z
					"/>
				<path style="fill:#EDEEF7;" d="M543.727,161.407c1.671,2.194,3.614,4.234,5.841,6.058c2.228,1.823,4.612,3.325,7.093,4.529
					l3.939-6.56c2.327,1.061,4.758,1.781,7.225,2.175l-0.35,7.653c5.592,0.756,11.3,0.186,16.632-1.66l-1.856-7.433
					c2.34-0.874,4.581-2.061,6.653-3.56l5.158,5.653c2.194-1.671,4.235-3.614,6.058-5.841c1.823-2.227,3.325-4.611,4.529-7.093
					l-6.56-3.939c1.061-2.327,1.781-4.758,2.175-7.225l7.653,0.35c0.756-5.592,0.186-11.3-1.66-16.632l-7.433,1.856
					c-0.874-2.34-2.061-4.581-3.56-6.653l5.652-5.158c-1.671-2.194-3.614-4.234-5.841-6.058c-2.228-1.823-4.612-3.325-7.093-4.529
					l-3.939,6.56c-2.327-1.061-4.758-1.781-7.225-2.175l0.35-7.653c-5.592-0.756-11.3-0.186-16.632,1.66l1.856,7.433
					c-2.34,0.874-4.581,2.061-6.653,3.56l-5.158-5.653c-2.194,1.671-4.234,3.614-6.057,5.841c-1.823,2.228-3.325,4.612-4.529,7.093
					l6.56,3.939c-1.061,2.327-1.781,4.758-2.175,7.225l-7.653-0.35c-0.756,5.592-0.186,11.3,1.66,16.632l7.433-1.856
					c0.874,2.34,2.061,4.581,3.56,6.653L543.727,161.407z M558.926,128.702c6.055-7.398,16.961-8.486,24.359-2.431
					c7.398,6.055,8.486,16.962,2.431,24.359c-6.055,7.398-16.961,8.486-24.359,2.431C553.959,147.007,552.871,136.1,558.926,128.702
					z M563.507,132.452c3.985-4.868,11.161-5.584,16.029-1.6c4.868,3.985,5.584,11.161,1.6,16.03
					c-3.985,4.868-11.161,5.584-16.03,1.6C560.238,144.497,559.522,137.32,563.507,132.452z"/>
				<path style="fill:#EDEEF7;" d="M232.097,107.589c0.766-1.655,1.357-3.421,1.734-5.286c0.377-1.865,0.517-3.722,0.454-5.544
					l-5.051-0.274c-0.1-1.688-0.43-3.331-0.962-4.894l4.58-2.161c-1.287-3.501-3.384-6.661-6.111-9.206l-3.77,3.382
					c-1.234-1.097-2.62-2.04-4.137-2.787l1.709-4.761c-1.655-0.766-3.421-1.357-5.286-1.734c-1.865-0.377-3.722-0.517-5.545-0.454
					l-0.274,5.051c-1.688,0.1-3.331,0.43-4.894,0.962l-2.161-4.58c-3.501,1.287-6.661,3.384-9.206,6.111l3.382,3.77
					c-1.097,1.234-2.04,2.62-2.787,4.137l-4.761-1.709c-0.766,1.655-1.357,3.421-1.734,5.286c-0.377,1.865-0.517,3.723-0.454,5.545
					l5.051,0.274c0.1,1.688,0.43,3.331,0.962,4.894l-4.58,2.161c1.287,3.502,3.384,6.661,6.111,9.206l3.77-3.382
					c1.234,1.097,2.62,2.04,4.137,2.787l-1.709,4.761c1.655,0.766,3.421,1.357,5.286,1.734c1.865,0.377,3.722,0.517,5.545,0.454
					l0.274-5.051c1.688-0.1,3.331-0.43,4.895-0.962l2.161,4.58c3.501-1.287,6.661-3.384,9.206-6.111l-3.382-3.77
					c1.097-1.234,2.04-2.62,2.787-4.137L232.097,107.589z M208.288,108.817c-6.195-1.252-10.202-7.288-8.95-13.483
					c1.252-6.195,7.288-10.202,13.483-8.95c6.195,1.251,10.202,7.288,8.95,13.483C220.519,106.062,214.482,110.069,208.288,108.817z
					"/>
				<path style="fill:#EDEEF7;" d="M632.066,199.429c1.067-1.252,2.009-2.644,2.789-4.173s1.352-3.11,1.74-4.708l-4.323-1.463
					c0.323-1.491,0.434-2.999,0.351-4.487l4.505-0.767c-0.269-3.355-1.326-6.61-3.078-9.483l-4.096,2.025
					c-0.806-1.253-1.782-2.408-2.919-3.426l2.64-3.723c-1.252-1.067-2.644-2.009-4.173-2.789c-1.53-0.78-3.11-1.352-4.708-1.74
					l-1.463,4.324c-1.491-0.323-2.999-0.434-4.487-0.351l-0.767-4.505c-3.355,0.269-6.609,1.326-9.483,3.078l2.025,4.096
					c-1.253,0.807-2.409,1.783-3.426,2.919l-3.723-2.64c-1.067,1.252-2.009,2.644-2.789,4.173c-0.78,1.53-1.352,3.11-1.74,4.708
					l4.323,1.463c-0.323,1.491-0.434,2.999-0.351,4.487l-4.505,0.767c0.269,3.355,1.326,6.61,3.078,9.483l4.096-2.025
					c0.807,1.253,1.782,2.408,2.919,3.426l-2.64,3.723c1.252,1.067,2.644,2.009,4.173,2.789c1.53,0.78,3.11,1.352,4.709,1.74
					l1.463-4.323c1.491,0.323,2.999,0.434,4.487,0.351l0.767,4.505c3.355-0.269,6.609-1.325,9.483-3.078l-2.025-4.096
					c1.253-0.807,2.408-1.783,3.426-2.919L632.066,199.429z M611.076,194.721c-5.08-2.59-7.099-8.809-4.508-13.889
					c2.59-5.08,8.808-7.099,13.889-4.508c5.08,2.59,7.099,8.809,4.509,13.889C622.375,195.293,616.156,197.311,611.076,194.721z"/>
				<path style="fill:#EDEEF7;" d="M49.992,281.544h-3.365c-0.604,0-1.094-0.49-1.094-1.094v-3.365c0-0.604,0.49-1.094,1.094-1.094
					h3.365c0.604,0,1.094,0.49,1.094,1.094v3.365C51.086,281.054,50.597,281.544,49.992,281.544z"/>
				<path style="fill:#EDEEF7;" d="M704.484,233.971h-3.365c-0.604,0-1.094-0.49-1.094-1.094v-3.365c0-0.604,0.49-1.094,1.094-1.094
					h3.365c0.604,0,1.094,0.49,1.094,1.094v3.365C705.578,233.481,705.089,233.971,704.484,233.971z"/>
				<path style="fill:#EDEEF7;" d="M371.13,64.464h-3.365c-0.604,0-1.094-0.49-1.094-1.094v-3.365c0-0.604,0.49-1.094,1.094-1.094
					h3.365c0.604,0,1.094,0.49,1.094,1.094v3.365C372.224,63.974,371.734,64.464,371.13,64.464z"/>
				<path style="fill:#EDEEF7;" d="M587.46,204.613h-3.365c-0.604,0-1.094-0.49-1.094-1.094v-3.365c0-0.604,0.49-1.094,1.094-1.094
					h3.365c0.604,0,1.094,0.49,1.094,1.094v3.365C588.554,204.123,588.064,204.613,587.46,204.613z"/>
				<path style="fill:#EDEEF7;" d="M266.684,110.649h-3.365c-0.604,0-1.094-0.49-1.094-1.094v-3.364c0-0.604,0.49-1.094,1.094-1.094
					h3.365c0.604,0,1.094,0.49,1.094,1.094v3.364C267.778,110.16,267.288,110.649,266.684,110.649z"/>
			</g>
			<path style="fill:none;stroke:#C5C8EF;stroke-linejoin:round;stroke-miterlimit:10;" d="M210.249,218.818
				c0,2.542-2.061,4.603-4.603,4.603c-2.542,0-4.603-2.061-4.603-4.603s2.061-4.603,4.603-4.603
				C208.189,214.215,210.249,216.276,210.249,218.818z"/>
			<path style="fill:none;stroke:#C5C8EF;stroke-linejoin:round;stroke-miterlimit:10;" d="M148.76,111.873
				c0,2.542-2.061,4.603-4.603,4.603c-2.542,0-4.603-2.061-4.603-4.603c0-2.542,2.061-4.603,4.603-4.603
				C146.699,107.27,148.76,109.331,148.76,111.873z"/>
			<path style="fill:none;stroke:#C5C8EF;stroke-linejoin:round;stroke-miterlimit:10;" d="M668.049,162.983
				c0,2.542-2.061,4.603-4.603,4.603c-2.542,0-4.603-2.061-4.603-4.603c0-2.542,2.061-4.603,4.603-4.603
				C665.988,158.379,668.049,160.44,668.049,162.983z"/>
			<path style="fill:none;stroke:#C5C8EF;stroke-linejoin:round;stroke-miterlimit:10;" d="M178.887,107.006
				c0,1.318-1.069,2.387-2.387,2.387s-2.387-1.068-2.387-2.387c0-1.318,1.069-2.387,2.387-2.387S178.887,105.688,178.887,107.006z"
				/>
			<circle style="fill:none;stroke:#C5C8EF;stroke-linejoin:round;stroke-miterlimit:10;" cx="60.181" cy="222.768" r="2.387"/>
			<path style="fill:none;stroke:#C5C8EF;stroke-linejoin:round;stroke-miterlimit:10;" d="M282.806,98.233
				c0,1.318-1.068,2.387-2.387,2.387c-1.318,0-2.387-1.068-2.387-2.387c0-1.318,1.069-2.386,2.387-2.386
				C281.738,95.847,282.806,96.915,282.806,98.233z"/>
			<circle style="fill:none;stroke:#C5C8EF;stroke-linejoin:round;stroke-miterlimit:10;" cx="622.348" cy="132.053" r="2.386"/>
			<circle style="fill:none;stroke:#C5C8EF;stroke-linejoin:round;stroke-miterlimit:10;" cx="573.473" cy="285.997" r="2.387"/>
			
				<line style="fill:none;stroke:#C5C8EF;stroke-linejoin:round;stroke-miterlimit:10;" x1="103.384" y1="151.606" x2="115.696" y2="151.606"/>
			
				<line style="fill:none;stroke:#C5C8EF;stroke-linejoin:round;stroke-miterlimit:10;" x1="86.023" y1="145.53" x2="109.54" y2="145.53"/>
			
				<line style="fill:none;stroke:#C5C8EF;stroke-linejoin:round;stroke-miterlimit:10;" x1="312.228" y1="71.855" x2="329.539" y2="71.855"/>
			
				<line style="fill:none;stroke:#C5C8EF;stroke-linejoin:round;stroke-miterlimit:10;" x1="328.424" y1="77.928" x2="340.736" y2="77.928"/>
			
				<line style="fill:none;stroke:#C5C8EF;stroke-linejoin:round;stroke-miterlimit:10;" x1="667.531" y1="206.163" x2="683.116" y2="206.163"/>
			
				<line style="fill:none;stroke:#C5C8EF;stroke-linejoin:round;stroke-miterlimit:10;" x1="687.878" y1="206.163" x2="695.498" y2="206.163"/>
			
				<line style="fill:none;stroke:#C5C8EF;stroke-linejoin:round;stroke-miterlimit:10;" x1="306.687" y1="120.859" x2="318.999" y2="120.859"/>
			<g>
				
					<line style="fill:none;stroke:#C5C8EF;stroke-linecap:round;stroke-linejoin:round;stroke-miterlimit:10;" x1="108.519" y1="185.495" x2="108.519" y2="190.452"/>
				
					<line style="fill:none;stroke:#C5C8EF;stroke-linecap:round;stroke-linejoin:round;stroke-miterlimit:10;" x1="110.998" y1="187.974" x2="106.041" y2="187.974"/>
			</g>
			<g>
				
					<line style="fill:none;stroke:#C5C8EF;stroke-linecap:round;stroke-linejoin:round;stroke-miterlimit:10;" x1="519.571" y1="106.914" x2="519.571" y2="111.871"/>
				
					<line style="fill:none;stroke:#C5C8EF;stroke-linecap:round;stroke-linejoin:round;stroke-miterlimit:10;" x1="522.05" y1="109.393" x2="517.093" y2="109.393"/>
			</g>
			<g>
				
					<line style="fill:none;stroke:#C5C8EF;stroke-linecap:round;stroke-linejoin:round;stroke-miterlimit:10;" x1="351.675" y1="102.734" x2="351.675" y2="107.69"/>
				
					<line style="fill:none;stroke:#C5C8EF;stroke-linecap:round;stroke-linejoin:round;stroke-miterlimit:10;" x1="354.153" y1="105.212" x2="349.196" y2="105.212"/>
			</g>
			<g>
				
					<line style="fill:none;stroke:#C5C8EF;stroke-linecap:round;stroke-linejoin:round;stroke-miterlimit:10;" x1="695.498" y1="316.587" x2="695.498" y2="321.544"/>
				
					<line style="fill:none;stroke:#C5C8EF;stroke-linecap:round;stroke-linejoin:round;stroke-miterlimit:10;" x1="697.977" y1="319.066" x2="693.02" y2="319.066"/>
			</g>
		</g>
		<g>
			
				<rect x="272.162" y="69.276" transform="matrix(-1.836970e-16 1 -1 -1.836970e-16 598.5046 -151.4953)" style="fill:#FFFFFF;stroke:#7C8BD8;stroke-linejoin:round;stroke-miterlimit:10;" width="205.676" height="308.457"/>
			
				<rect x="230.771" y="130.667" style="fill:none;stroke:#7C8BD8;stroke-linejoin:round;stroke-miterlimit:10;" width="288.458" height="185.676"/>
			<g>
				<g>
					<path style="fill:#FFFFFF;stroke:#7C8BD8;stroke-linejoin:round;stroke-miterlimit:10;" d="M332.515,223.593
						c0-23.464,19.021-42.485,42.485-42.485c23.464,0,42.485,19.021,42.485,42.485c0,9.353-3.025,17.998-8.146,25.016h0
						c-6.064,9.138-21.822,19.456-21.822,25.637v7.062c0,1.41-1.143,2.552-2.552,2.552h-6.828h-6.275h-6.828
						c-1.41,0-2.552-1.143-2.552-2.552v-7.062c0-6.181-15.757-16.499-21.821-25.637l0,0
						C335.54,241.592,332.515,232.946,332.515,223.593z"/>
				</g>
				<g>
					<path style="fill:#7C8BD8;" d="M379.824,283.156c-0.05-1.064-0.81-18.119,0.555-33.065c-1.673,0.198-3.465,0.304-5.38,0.304
						c-1.915,0-3.706-0.105-5.38-0.304c1.366,14.946,0.605,32.001,0.555,33.065l-0.749-0.035c0.012-0.263,0.8-17.903-0.596-33.132
						c-12.601-1.752-18.241-8.891-19.254-15.628c-0.592-3.938,0.753-7.856,3.198-9.318c1.483-0.887,3.275-1.066,5.182-0.519
						c3.001,0.861,5.853,3.447,7.629,6.917c2.051,4.008,3.263,10.662,3.963,17.885c1.69,0.208,3.505,0.318,5.452,0.318
						c1.947,0,3.762-0.111,5.451-0.318c0.699-7.224,1.912-13.878,3.963-17.885c1.776-3.47,4.628-6.056,7.629-6.917
						c1.907-0.547,3.7-0.368,5.183,0.519c2.444,1.462,3.789,5.381,3.197,9.318c-1.013,6.737-6.653,13.876-19.254,15.628
						c-1.396,15.229-0.608,32.869-0.596,33.132L379.824,283.156z M394.145,224.965c-0.608,0-1.243,0.093-1.895,0.28
						c-2.805,0.805-5.485,3.249-7.168,6.537c-1.973,3.854-3.152,10.346-3.84,17.438c12.071-1.74,17.474-8.545,18.44-14.971
						c0.54-3.591-0.681-7.272-2.84-8.563C396.038,225.207,395.126,224.965,394.145,224.965z M355.855,224.965
						c-0.981,0-1.893,0.242-2.696,0.722c-2.159,1.291-3.38,4.972-2.841,8.563c0.966,6.425,6.368,13.23,18.439,14.971
						c-0.688-7.093-1.867-13.584-3.84-17.438c-1.684-3.289-4.363-5.733-7.168-6.537
						C357.098,225.058,356.463,224.965,355.855,224.965z"/>
				</g>
				<g>
					<path style="fill:#EDEEF7;" d="M410.412,226.031c-1.346,0-2.438-1.091-2.438-2.438c0-15.117-10.22-28.263-24.854-31.967
						c-1.305-0.33-2.095-1.656-1.765-2.962c0.33-1.305,1.656-2.096,2.961-1.765c16.8,4.253,28.533,19.342,28.533,36.694
						C412.849,224.939,411.758,226.031,410.412,226.031z"/>
				</g>
				<g>
					<circle style="fill:#EDEEF7;" cx="376.619" cy="188.115" r="2.438"/>
				</g>
				<g>
					<path style="fill:#FFFFFF;stroke:#7C8BD8;stroke-linejoin:round;stroke-miterlimit:10;" d="M388.521,277.262h-27.042v12.888
						c0,2.104,0.599,4.166,1.727,5.943l0,0c2.132,3.359,5.834,5.394,9.812,5.394h3.964c3.978,0,7.68-2.035,9.812-5.394l0,0
						c1.128-1.777,1.727-3.838,1.727-5.943V277.262z"/>
				</g>
				<g>
					<g>
						<path style="fill:#FFFFFF;stroke:#7C8BD8;stroke-linejoin:round;stroke-miterlimit:10;" d="M387.443,297.691
							c-0.077,0.004-0.155,0.003-0.234-0.004l-25.632-2.209c-0.923-0.079-1.568-0.898-1.44-1.828c0.128-0.93,0.983-1.62,1.903-1.539
							l25.633,2.209c0.923,0.079,1.568,0.898,1.44,1.828C388.996,296.998,388.273,297.647,387.443,297.691z"/>
					</g>
				</g>
				<g>
					<g>
						<path style="fill:#FFFFFF;stroke:#7C8BD8;stroke-linejoin:round;stroke-miterlimit:10;" d="M388.523,286.187
							c-0.077,0.004-0.155,0.003-0.234-0.004l-27.042-2.33c-0.923-0.079-1.568-0.898-1.44-1.828c0.128-0.93,0.982-1.62,1.903-1.539
							l27.042,2.33c0.923,0.079,1.568,0.898,1.44,1.828C390.076,285.494,389.353,286.144,388.523,286.187z"/>
					</g>
				</g>
				<g>
					<g>
						<path style="fill:#FFFFFF;stroke:#7C8BD8;stroke-linejoin:round;stroke-miterlimit:10;" d="M388.523,292.086
							c-0.077,0.004-0.155,0.003-0.234-0.004l-27.042-2.33c-0.923-0.079-1.568-0.898-1.44-1.828c0.128-0.93,0.982-1.618,1.903-1.539
							l27.042,2.33c0.923,0.079,1.568,0.898,1.44,1.828C390.076,291.393,389.353,292.043,388.523,292.086z"/>
					</g>
				</g>
				<g>
					
						<line style="fill:none;stroke:#7C8BD8;stroke-linejoin:round;stroke-miterlimit:10;" x1="375.077" y1="159.925" x2="375.077" y2="174.573"/>
					
						<line style="fill:none;stroke:#7C8BD8;stroke-linejoin:round;stroke-miterlimit:10;" x1="420.305" y1="178.723" x2="409.947" y2="189.081"/>
					
						<line style="fill:none;stroke:#7C8BD8;stroke-linejoin:round;stroke-miterlimit:10;" x1="329.803" y1="178.614" x2="340.161" y2="188.973"/>
					
						<line style="fill:none;stroke:#7C8BD8;stroke-linejoin:round;stroke-miterlimit:10;" x1="350.581" y1="164.767" x2="356.187" y2="178.3"/>
					
						<line style="fill:none;stroke:#7C8BD8;stroke-linejoin:round;stroke-miterlimit:10;" x1="399.561" y1="164.825" x2="393.955" y2="178.359"/>
					
						<line style="fill:none;stroke:#7C8BD8;stroke-linejoin:round;stroke-miterlimit:10;" x1="434.153" y1="199.501" x2="420.619" y2="205.106"/>
					
						<line style="fill:none;stroke:#7C8BD8;stroke-linejoin:round;stroke-miterlimit:10;" x1="315.905" y1="199.359" x2="329.439" y2="204.965"/>
				</g>
			</g>
			<g>
				<g>
					<g>
						<rect x="246.791" y="176.334" style="opacity:0.35;fill:#ABB3ED;" width="18.789" height="15.135"/>
						
							<line style="opacity:0.35;fill:none;stroke:#ABB3ED;stroke-miterlimit:10;" x1="274.214" y1="176.334" x2="287.203" y2="176.334"/>
						
							<line style="opacity:0.35;fill:none;stroke:#ABB3ED;stroke-miterlimit:10;" x1="274.214" y1="191.469" x2="300.483" y2="191.469"/>
						
							<line style="opacity:0.35;fill:none;stroke:#ABB3ED;stroke-miterlimit:10;" x1="274.214" y1="186.599" x2="300.483" y2="186.599"/>
						
							<line style="opacity:0.35;fill:none;stroke:#ABB3ED;stroke-miterlimit:10;" x1="274.214" y1="181.856" x2="300.483" y2="181.856"/>
					</g>
					<g>
						<rect x="246.791" y="206.467" style="opacity:0.35;fill:#ABB3ED;" width="18.789" height="15.135"/>
						
							<line style="opacity:0.35;fill:none;stroke:#ABB3ED;stroke-miterlimit:10;" x1="274.214" y1="206.467" x2="287.203" y2="206.467"/>
						
							<line style="opacity:0.35;fill:none;stroke:#ABB3ED;stroke-miterlimit:10;" x1="274.214" y1="221.602" x2="300.483" y2="221.602"/>
						
							<line style="opacity:0.35;fill:none;stroke:#ABB3ED;stroke-miterlimit:10;" x1="274.214" y1="216.732" x2="300.483" y2="216.732"/>
						
							<line style="opacity:0.35;fill:none;stroke:#ABB3ED;stroke-miterlimit:10;" x1="274.214" y1="211.989" x2="300.483" y2="211.989"/>
					</g>
					<g>
						<rect x="246.791" y="236.599" style="opacity:0.35;fill:#ABB3ED;" width="18.789" height="15.135"/>
						
							<line style="opacity:0.35;fill:none;stroke:#ABB3ED;stroke-miterlimit:10;" x1="274.214" y1="236.599" x2="287.203" y2="236.599"/>
						
							<line style="opacity:0.35;fill:none;stroke:#ABB3ED;stroke-miterlimit:10;" x1="274.214" y1="251.734" x2="300.483" y2="251.734"/>
						
							<line style="opacity:0.35;fill:none;stroke:#ABB3ED;stroke-miterlimit:10;" x1="274.214" y1="246.864" x2="300.483" y2="246.864"/>
						
							<line style="opacity:0.35;fill:none;stroke:#ABB3ED;stroke-miterlimit:10;" x1="274.214" y1="242.121" x2="300.483" y2="242.121"/>
					</g>
					<g>
						<rect x="246.791" y="266.731" style="opacity:0.35;fill:#ABB3ED;" width="18.789" height="15.135"/>
						
							<line style="opacity:0.35;fill:none;stroke:#ABB3ED;stroke-miterlimit:10;" x1="274.214" y1="266.731" x2="287.203" y2="266.731"/>
						
							<line style="opacity:0.35;fill:none;stroke:#ABB3ED;stroke-miterlimit:10;" x1="274.214" y1="281.866" x2="300.483" y2="281.866"/>
						
							<line style="opacity:0.35;fill:none;stroke:#ABB3ED;stroke-miterlimit:10;" x1="274.214" y1="276.997" x2="300.483" y2="276.997"/>
						
							<line style="opacity:0.35;fill:none;stroke:#ABB3ED;stroke-miterlimit:10;" x1="274.214" y1="272.254" x2="300.483" y2="272.254"/>
					</g>
				</g>
				<g>
					<g>
						<rect x="449.517" y="176.334" style="opacity:0.35;fill:#ABB3ED;" width="18.789" height="15.135"/>
						
							<line style="opacity:0.35;fill:none;stroke:#ABB3ED;stroke-miterlimit:10;" x1="476.94" y1="176.334" x2="489.929" y2="176.334"/>
						
							<line style="opacity:0.35;fill:none;stroke:#ABB3ED;stroke-miterlimit:10;" x1="476.94" y1="191.469" x2="503.209" y2="191.469"/>
						
							<line style="opacity:0.35;fill:none;stroke:#ABB3ED;stroke-miterlimit:10;" x1="476.94" y1="186.599" x2="503.209" y2="186.599"/>
						
							<line style="opacity:0.35;fill:none;stroke:#ABB3ED;stroke-miterlimit:10;" x1="476.94" y1="181.856" x2="503.209" y2="181.856"/>
					</g>
					<g>
						<rect x="449.517" y="206.467" style="opacity:0.35;fill:#ABB3ED;" width="18.789" height="15.135"/>
						
							<line style="opacity:0.35;fill:none;stroke:#ABB3ED;stroke-miterlimit:10;" x1="476.94" y1="206.467" x2="489.929" y2="206.467"/>
						
							<line style="opacity:0.35;fill:none;stroke:#ABB3ED;stroke-miterlimit:10;" x1="476.94" y1="221.602" x2="503.209" y2="221.602"/>
						
							<line style="opacity:0.35;fill:none;stroke:#ABB3ED;stroke-miterlimit:10;" x1="476.94" y1="216.732" x2="503.209" y2="216.732"/>
						
							<line style="opacity:0.35;fill:none;stroke:#ABB3ED;stroke-miterlimit:10;" x1="476.94" y1="211.989" x2="503.209" y2="211.989"/>
					</g>
					<g>
						<rect x="449.517" y="236.599" style="opacity:0.35;fill:#ABB3ED;" width="18.789" height="15.135"/>
						
							<line style="opacity:0.35;fill:none;stroke:#ABB3ED;stroke-miterlimit:10;" x1="476.94" y1="236.599" x2="489.929" y2="236.599"/>
						
							<line style="opacity:0.35;fill:none;stroke:#ABB3ED;stroke-miterlimit:10;" x1="476.94" y1="251.734" x2="503.209" y2="251.734"/>
						
							<line style="opacity:0.35;fill:none;stroke:#ABB3ED;stroke-miterlimit:10;" x1="476.94" y1="246.864" x2="503.209" y2="246.864"/>
						
							<line style="opacity:0.35;fill:none;stroke:#ABB3ED;stroke-miterlimit:10;" x1="476.94" y1="242.121" x2="503.209" y2="242.121"/>
					</g>
					<g>
						<rect x="449.517" y="266.731" style="opacity:0.35;fill:#ABB3ED;" width="18.789" height="15.135"/>
						
							<line style="opacity:0.35;fill:none;stroke:#ABB3ED;stroke-miterlimit:10;" x1="476.94" y1="266.731" x2="489.929" y2="266.731"/>
						
							<line style="opacity:0.35;fill:none;stroke:#ABB3ED;stroke-miterlimit:10;" x1="476.94" y1="281.866" x2="503.209" y2="281.866"/>
						
							<line style="opacity:0.35;fill:none;stroke:#ABB3ED;stroke-miterlimit:10;" x1="476.94" y1="276.997" x2="503.209" y2="276.997"/>
						
							<line style="opacity:0.35;fill:none;stroke:#ABB3ED;stroke-miterlimit:10;" x1="476.94" y1="272.254" x2="503.209" y2="272.254"/>
					</g>
				</g>
			</g>
			<g>
				
					<line style="fill:none;stroke:#7C8BD8;stroke-linejoin:round;stroke-miterlimit:10;" x1="501.926" y1="120.666" x2="501.926" y2="85.08"/>
				<circle style="fill:none;stroke:#7C8BD8;stroke-linejoin:round;stroke-miterlimit:10;" cx="501.926" cy="82.244" r="2.836"/>
				
					<line style="fill:none;stroke:#7C8BD8;stroke-linejoin:round;stroke-miterlimit:10;" x1="248.074" y1="120.666" x2="248.074" y2="85.08"/>
				<circle style="fill:none;stroke:#7C8BD8;stroke-linejoin:round;stroke-miterlimit:10;" cx="248.074" cy="82.244" r="2.836"/>
			</g>
			
				<line style="opacity:0.35;fill:none;stroke:#ABB3ED;stroke-width:2;stroke-linecap:round;stroke-linejoin:round;stroke-miterlimit:10;" x1="333.201" y1="140.279" x2="416.799" y2="140.279"/>
			
				<line style="opacity:0.35;fill:none;stroke:#ABB3ED;stroke-width:2;stroke-linecap:round;stroke-linejoin:round;stroke-miterlimit:10;" x1="309.181" y1="149.379" x2="440.818" y2="149.379"/>
		</g>
		<g>
			<g>
				<g>
					<g>
						<path style="fill:#FFFFFF;stroke:#C5C8EF;stroke-linejoin:round;stroke-miterlimit:10;" d="M589.298,385.104
							c-5.829-16.202-20.229-51.186-7.052-101.805c22.869,28.273,24.333,69.109,21.986,105.975"/>
						<path style="fill:none;stroke:#C5C8EF;stroke-linejoin:round;stroke-miterlimit:10;" d="M582.246,283.299
							c0,0,4.935,64.438,13.946,105.112"/>
						<path style="fill:none;stroke:#C5C8EF;stroke-linejoin:round;stroke-miterlimit:10;" d="M582.246,283.299
							c0,0-5.299,46.011,9.778,104.286"/>
						<path style="fill:none;stroke:#C5C8EF;stroke-linejoin:round;stroke-miterlimit:10;" d="M598.873,387.89
							c0,0-6.71-80.795-16.627-104.591"/>
						<path style="fill:none;stroke:#C5C8EF;stroke-linejoin:round;stroke-miterlimit:10;" d="M601.366,388.001
							c0,0,0.938-76.021-19.12-104.702"/>
					</g>
					<g>
						<path style="fill:#FFFFFF;stroke:#C5C8EF;stroke-linejoin:round;stroke-miterlimit:10;" d="M577.489,392.841
							c-8.705-11.541-29.291-36.203-25.532-76.719c27.713,18.335,36.608,49.302,41.021,77.781"/>
						<path style="fill:none;stroke:#C5C8EF;stroke-linejoin:round;stroke-miterlimit:10;" d="M551.957,316.121
							c0,0,9.477,48.397,29.032,76.626"/>
						<path style="fill:none;stroke:#C5C8EF;stroke-linejoin:round;stroke-miterlimit:10;" d="M584.724,393.902
							c0,0-24.651-66.832-32.766-77.781"/>
						<path style="fill:none;stroke:#C5C8EF;stroke-linejoin:round;stroke-miterlimit:10;" d="M589.338,393.902
							c0,0-14.721-60.179-37.381-77.781"/>
					</g>
					<g>
						<path style="fill:#FFFFFF;stroke:#C5C8EF;stroke-linejoin:round;stroke-miterlimit:10;" d="M617.72,384.272
							c7.445-16.732,25.55-52.785,13.668-106.393c-27.206,28.659-31.161,71.393-30.624,110.129"/>
						<path style="fill:none;stroke:#C5C8EF;stroke-linejoin:round;stroke-miterlimit:10;" d="M631.389,277.879
							c0,0-9.179,67.322-21.573,109.566"/>
						<path style="fill:none;stroke:#C5C8EF;stroke-linejoin:round;stroke-miterlimit:10;" d="M631.389,277.879
							c0,0,3.324,48.445-16.86,108.877"/>
						<path style="fill:none;stroke:#C5C8EF;stroke-linejoin:round;stroke-miterlimit:10;" d="M606.843,386.785
							c0,0,12.093-84.389,24.545-108.906"/>
						<path style="fill:none;stroke:#C5C8EF;stroke-linejoin:round;stroke-miterlimit:10;" d="M604.045,386.796
							c0,0,3.26-79.711,27.343-108.917"/>
					</g>
					<g>
						<path style="fill:#FFFFFF;stroke:#C5C8EF;stroke-linejoin:round;stroke-miterlimit:10;" d="M622.321,404.502
							c9.11-13.361,30.365-41.753,31.434-91.449c-26.979,20.1-38.396,57.127-45.503,91.484"/>
						<path style="fill:none;stroke:#C5C8EF;stroke-linejoin:round;stroke-miterlimit:10;" d="M653.754,313.053
							c0,0-13.858,58.228-34.576,91.051"/>
						<path style="fill:none;stroke:#C5C8EF;stroke-linejoin:round;stroke-miterlimit:10;" d="M615.687,405.208
							c0,0,29.553-79.468,38.067-92.155"/>
						<path style="fill:none;stroke:#C5C8EF;stroke-linejoin:round;stroke-miterlimit:10;" d="M611.531,404.833
							c0,0,19.877-72.164,42.224-91.78"/>
					</g>
					<g id="XMLID_15_">
						<path style="fill:#E5EAF9;" d="M637.71,384.17v15.314c0,33.903-13.806,55.722-13.806,55.722h-42.75
							c0,0-13.806-21.819-13.806-55.722V384.17H637.71z"/>
					</g>
				</g>
			</g>
			<g>
				<g>
					<g>
						<path style="fill:#FFFFFF;stroke:#C5C8EF;stroke-linejoin:round;stroke-miterlimit:10;" d="M79.229,383.823
							c-5.141-22.767-18.068-71.861-2.513-144.189c21.761,39.247,21.394,97.136,17.368,149.537"/>
						<path style="fill:none;stroke:#C5C8EF;stroke-linejoin:round;stroke-miterlimit:10;" d="M76.716,239.634
							c0,0,2.065,91.247,9.307,148.618"/>
						<path style="fill:none;stroke:#C5C8EF;stroke-linejoin:round;stroke-miterlimit:10;" d="M76.716,239.634
							c0,0-7.412,65.49,5.146,147.605"/>
						<path style="fill:none;stroke:#C5C8EF;stroke-linejoin:round;stroke-miterlimit:10;" d="M88.747,387.411
							c0,0-3.115-114.389-12.031-147.777"/>
						<path style="fill:none;stroke:#C5C8EF;stroke-linejoin:round;stroke-miterlimit:10;" d="M91.254,387.474
							c0,0,4.373-107.907-14.538-147.84"/>
					</g>
					<g>
						<path style="fill:#FFFFFF;stroke:#C5C8EF;stroke-linejoin:round;stroke-miterlimit:10;" d="M68.321,392.588
							c-8.705-14.291-29.291-44.831-25.532-95.003c27.713,22.705,36.608,61.052,41.021,96.318"/>
						<path style="fill:none;stroke:#C5C8EF;stroke-linejoin:round;stroke-miterlimit:10;" d="M42.789,297.585
							c0,0,9.477,59.931,29.032,94.888"/>
						<path style="fill:none;stroke:#C5C8EF;stroke-linejoin:round;stroke-miterlimit:10;" d="M75.555,393.902
							c0,0-24.651-82.76-32.766-96.318"/>
						<path style="fill:none;stroke:#C5C8EF;stroke-linejoin:round;stroke-miterlimit:10;" d="M80.17,393.902
							c0,0-14.721-74.521-37.381-96.318"/>
					</g>
					<g>
						<path style="fill:#FFFFFF;stroke:#C5C8EF;stroke-linejoin:round;stroke-miterlimit:10;" d="M109.951,383.54
							c7.026-20.034,24.139-63.192,12.48-127.543c-25.857,34.249-29.401,85.485-28.673,131.946"/>
						<path style="fill:none;stroke:#C5C8EF;stroke-linejoin:round;stroke-miterlimit:10;" d="M122.431,255.997
							c0,0-8.404,80.702-20.021,131.312"/>
						<path style="fill:none;stroke:#C5C8EF;stroke-linejoin:round;stroke-miterlimit:10;" d="M122.431,255.997
							c0,0,3.447,58.119-15.518,130.507"/>
						<path style="fill:none;stroke:#C5C8EF;stroke-linejoin:round;stroke-miterlimit:10;" d="M99.564,386.504
							c0,0,11.096-101.158,22.867-130.507"/>
						<path style="fill:none;stroke:#C5C8EF;stroke-linejoin:round;stroke-miterlimit:10;" d="M96.889,386.504
							c0,0,2.675-95.588,25.543-130.507"/>
					</g>
					<g>
						<path style="fill:#FFFFFF;stroke:#C5C8EF;stroke-linejoin:round;stroke-miterlimit:10;" d="M115.153,404.502
							c9.11-13.361,30.364-41.753,31.434-91.449c-26.979,20.1-38.396,57.127-45.503,91.484"/>
						<path style="fill:none;stroke:#C5C8EF;stroke-linejoin:round;stroke-miterlimit:10;" d="M146.586,313.053
							c0,0-13.858,58.228-34.576,91.051"/>
						<path style="fill:none;stroke:#C5C8EF;stroke-linejoin:round;stroke-miterlimit:10;" d="M108.519,405.208
							c0,0,29.553-79.468,38.067-92.155"/>
						<path style="fill:none;stroke:#C5C8EF;stroke-linejoin:round;stroke-miterlimit:10;" d="M104.363,404.833
							c0,0,19.877-72.164,42.224-91.78"/>
					</g>
					<g id="XMLID_14_">
						<path style="fill:#E5EAF9;" d="M130.542,384.17v15.314c0,33.903-13.806,55.722-13.806,55.722H73.987
							c0,0-13.806-21.819-13.806-55.722V384.17H130.542z"/>
					</g>
				</g>
			</g>
			<g>
				<g>
					<g>
						<path style="fill:#FFFFFF;stroke:#C5C8EF;stroke-linejoin:round;stroke-miterlimit:10;" d="M472.29,404.893
							c-3.494-11.79-12.522-37.477,2.263-70.38c16.816,23.972,14.467,50.225,9.635,75.098"/>
						<path style="fill:none;stroke:#C5C8EF;stroke-linejoin:round;stroke-miterlimit:10;" d="M474.553,334.513
							c0,0-5.71,31.121,2.034,72.79"/>
						<path style="fill:none;stroke:#C5C8EF;stroke-linejoin:round;stroke-miterlimit:10;" d="M477.648,407.619
							c0,0,3.146-55.619-3.095-73.106"/>
						<path style="fill:none;stroke:#C5C8EF;stroke-linejoin:round;stroke-miterlimit:10;" d="M479.681,408.007
							c0,0,9.031-51.402-5.128-73.494"/>
					</g>
					<g>
						<path style="fill:#FFFFFF;stroke:#C5C8EF;stroke-linejoin:round;stroke-miterlimit:10;" d="M460.654,412.71
							c-7.016-6.271-23.311-19.301-25.378-47.747c20.273,7.363,29.589,26.9,35.68,45.573"/>
						<path style="fill:none;stroke:#C5C8EF;stroke-linejoin:round;stroke-miterlimit:10;" d="M435.275,364.962
							c0,0,7.103,23.973,28.612,48.191"/>
						<path style="fill:none;stroke:#C5C8EF;stroke-linejoin:round;stroke-miterlimit:10;" d="M467.281,411.371
							c0,0-23.706-34.339-32.006-46.408"/>
						<path style="fill:none;stroke:#C5C8EF;stroke-linejoin:round;stroke-miterlimit:10;" d="M468.881,410.722
							c0,0-16.396-34.508-33.606-45.759"/>
					</g>
					<g>
						<path style="fill:#FFFFFF;stroke:#C5C8EF;stroke-linejoin:round;stroke-miterlimit:10;" d="M467.316,405.682
							c-5.566-8.19-21.811-32.838-16.846-59.005c18.755,14.057,26.298,41.941,27.846,60.865"/>
						<path style="fill:none;stroke:#C5C8EF;stroke-linejoin:round;stroke-miterlimit:10;" d="M450.47,346.677
							c0,0,6.977,39.306,19.35,59.208"/>
						<path style="fill:none;stroke:#C5C8EF;stroke-linejoin:round;stroke-miterlimit:10;" d="M472.422,406.92
							c0,0-16.774-52.484-21.952-60.243"/>
						<path style="fill:none;stroke:#C5C8EF;stroke-linejoin:round;stroke-miterlimit:10;" d="M475.717,407.267
							c0,0-10.058-47.392-25.246-60.591"/>
					</g>
					<g>
						<path style="fill:#FFFFFF;stroke:#C5C8EF;stroke-linejoin:round;stroke-miterlimit:10;" d="M494.126,405.219
							c4.762-10.609,16.36-33.465,8.458-67.545c-17.524,18.138-19.926,45.271-19.432,69.877"/>
						<path style="fill:none;stroke:#C5C8EF;stroke-linejoin:round;stroke-miterlimit:10;" d="M502.584,337.674
							c0,0-8.281,39.435-14.468,68.772"/>
						<path style="fill:none;stroke:#C5C8EF;stroke-linejoin:round;stroke-miterlimit:10;" d="M502.584,337.674
							c0,0,1.883,30.779-10.97,69.115"/>
						<path style="fill:none;stroke:#C5C8EF;stroke-linejoin:round;stroke-miterlimit:10;" d="M485.273,406.789
							c0,0,3.578-46.23,17.311-69.115"/>
					</g>
					<g>
						<path style="fill:#FFFFFF;stroke:#C5C8EF;stroke-linejoin:round;stroke-miterlimit:10;" d="M494.651,416.32
							c6.174-7.076,22.034-24.738,23.303-48.43c-18.284,10.645-26.022,30.254-30.838,48.449"/>
						<path style="fill:none;stroke:#C5C8EF;stroke-linejoin:round;stroke-miterlimit:10;" d="M517.954,367.89
							c0,0-11.353,30.001-25.395,47.383"/>
						<path style="fill:none;stroke:#C5C8EF;stroke-linejoin:round;stroke-miterlimit:10;" d="M489.156,415.273
							c0,0,17.082-35.979,28.798-47.383"/>
					</g>
					<g id="XMLID_13_">
						<path style="fill:#E5EAF9;" d="M508.477,403.256v11.199c0,24.794-12.043,40.75-12.043,40.75h-37.292
							c0,0-12.043-15.956-12.043-40.75v-11.199H508.477z"/>
					</g>
				</g>
			</g>
		</g>
		
			<line style="fill:none;stroke:#7C8BD8;stroke-linejoin:round;stroke-miterlimit:10;" x1="47.198" y1="455.838" x2="702.802" y2="455.838"/>
		<g>
			<g>
				<path style="fill:#FFCBC2;" d="M652.839,207.805l1.393,11.942c0,0-4.46,4.819-11.206,4.819s-6.746-4.498-6.746-4.498
					l1.285-10.28l10.372-10.885L652.839,207.805"/>
				<g>
					<path style="fill:#F9BBAF;" d="M634.243,199.907c-0.027-0.432-0.556-0.663-0.985-0.605c-0.611,0.083-1.121,0.546-1.398,1.096
						c-0.277,0.55-0.352,1.18-0.37,1.796c-0.016,0.572,0.018,1.167,0.282,1.676c0.469,0.904,1.691,1.327,2.618,0.905"/>
				</g>
				<path style="fill:#FFCBC2;" d="M634.773,191.798c0,0-3.565,13.596-1.606,16.384c2.934,4.176,9.914,4.498,12.855,2.57
					c2.467-1.617,4.493-10.28,4.493-12.529C650.514,192.119,637.985,188.585,634.773,191.798z"/>
				<g>
					<path style="fill:#212237;" d="M654.988,202.038c0.108-0.45,0.232-0.895,0.393-1.345c0.383-1.066,0.967-2.007,1.385-3.055
						c0.836-2.094,0.141-4.698-1.626-6.098c-0.314-0.249-0.658-0.463-0.936-0.751c-0.626-0.647-0.843-1.572-1.206-2.396
						c-0.296-0.673-0.729-1.324-1.379-1.669c-1.491-0.795-3.476,0.283-4.966-0.513c-0.323-0.172-0.596-0.422-0.887-0.642
						c-2.137-1.616-4.562-1.239-6.891-0.397c-1.09,0.394-1.447,0.824-2.355,1.53c-0.991,0.771-2.363,0.719-3.36,1.475
						c-1.046,0.793-1.31,2.248-1.32,3.56c-0.004,0.475,0.018,0.966,0.22,1.397c0.259,0.554,0.785,0.941,1.341,1.194
						c1.336,0.608,2.837,0.374,4.254,0.267c1.384-0.104,2.991-1.079,4.344-0.574c1.32,0.493,1.658,2.112,3.283,2.238
						c0.641,0.05,1.42-0.067,1.803,0.449c0.432,0.583,0.205,1.542,0.546,2.216c0.322,0.636,0.885,1.21,1.299,1.796
						c0.821,1.166,1.986,1.966,1.569,3.487c-0.289,1.057-1.465,2.756-0.98,3.876c0.32,0.738,1.945,0.726,3.175-0.21
						c1.267-0.964,1.644-2.801,1.954-4.265C654.762,203.072,654.865,202.553,654.988,202.038z"/>
				</g>
				<path style="fill:none;stroke:#F7A794;stroke-width:0.75;stroke-miterlimit:10;" d="M637.35,211.497
					c0,0,4.681,0.923,7.905-0.808c2.543-1.365,3.459-4.526,3.459-4.526"/>
				<g>
					<path style="fill:#FFCBC2;" d="M647.126,201.722c0.296-0.501,1.286-1.152,1.83-1.094c0.544,0.058,1.041,0.385,1.422,0.813
						c1.785,2.008-0.158,5.841-2.893,5.418c-1.004-0.156-0.73-1.484-0.73-1.484"/>
				</g>
				<path style="fill:none;stroke:#F7A794;stroke-width:0.5;stroke-miterlimit:10;" d="M637.059,198.903c0,0-2.08,3.202-1.883,4.092
					c0.196,0.891,2.316,0.995,2.316,0.995"/>
				<path style="fill:#FFFFFF;" d="M635.17,205.087l5.782,0.807c0,0-1.102,2.984-4.247,2.324
					C634.462,207.746,635.17,205.087,635.17,205.087z"/>
				<g>
					<g>
						<path style="fill:#212237;" d="M634.704,197.906c-0.101,0.241-0.185,0.486-0.258,0.737c-0.142,0.488,0.631,0.701,0.761,0.21
							c0.067-0.253,0.122-0.506,0.16-0.764C635.432,197.648,634.875,197.497,634.704,197.906L634.704,197.906z"/>
					</g>
				</g>
				<path style="fill:none;stroke:#212237;stroke-width:0.5;stroke-linecap:round;stroke-linejoin:round;stroke-miterlimit:10;" d="
					M636.56,196.535c0,0-0.888-1.193-2.17-0.256"/>
				<g>
					<g>
						<path style="fill:#212237;" d="M641.286,199.443c-0.087,0.245-0.156,0.494-0.214,0.748c-0.114,0.496,0.659,0.706,0.761,0.21
							c0.059-0.287,0.103-0.575,0.129-0.866C641.998,199.127,641.408,199.099,641.286,199.443L641.286,199.443z"/>
					</g>
				</g>
				<path style="fill:none;stroke:#212237;stroke-width:0.5;stroke-linecap:round;stroke-linejoin:round;stroke-miterlimit:10;" d="
					M641.005,197.198c0,0,1.414-0.484,2.883,1.187"/>
			</g>
			<g>
				<g>
					<g>
						<g>
							<path style="fill:#FFCBC2;" d="M632.013,415.959l-2.749,27.585l0.232,8.676l-34.017-0.174
								c-0.831-0.004-1.5-0.681-1.496-1.512l0,0c0.003-0.622,0.389-1.178,0.971-1.399l14.671-6.746l1.408-28.702"/>
							<path style="fill:#011E3B;" d="M592.496,451.681c0.348-1.09,0.986-2.313,1.629-2.59l15.556-6.699
								c8.574,3.475,19.673,0.819,19.673,0.819l1.98,11.712c-0.002,0.388-0.318,0.7-0.706,0.698h-37.872
								C591.995,455.616,592.485,451.715,592.496,451.681z"/>
							<path style="fill:none;stroke:#2C79E8;stroke-width:0.75;stroke-miterlimit:10;" d="M606.314,443.061
								c0.872,1.136,1.609,2.375,2.193,3.682"/>
							<path style="fill:none;stroke:#2C79E8;stroke-width:0.75;stroke-miterlimit:10;" d="M604.355,444.232
								c0.903,1.25,1.264,1.972,1.803,3.131"/>
							<path style="fill:none;stroke:#2C79E8;stroke-width:0.75;stroke-miterlimit:10;" d="M602.7,445.087
								c0.613,0.824,1.214,1.963,1.69,2.873"/>
						</g>
						
							<line style="fill:none;stroke:#2C79E8;stroke-width:0.75;stroke-miterlimit:10;" x1="631.134" y1="453.092" x2="592.336" y2="452.893"/>
						<path style="fill:none;stroke:#2C79E8;stroke-width:0.75;stroke-miterlimit:10;" d="M630.056,447.364
							c0,0-9.114,0.185-9.898,5.676"/>
						<path style="fill:none;stroke:#2C79E8;stroke-width:0.75;stroke-miterlimit:10;" d="M597.313,447.717
							c0,0,2.513,3.571,3.008,5.218"/>
					</g>
				</g>
				<path style="fill:#1F2677;" d="M616.098,297.496c-5.847,42.011-11.087,141.251-11.087,141.251h29.288
					c0,0,6.041-62.039,11.171-106.92c12.888-21.327,11.885-44.427,13.339-47.497"/>
				<path style="fill:none;stroke:#3A53CE;stroke-width:0.75;stroke-miterlimit:10;" d="M630.299,438.748
					c0,0,7.241-68.524,12.372-113.405"/>
				<g>
					<g>
						<g>
							<path style="fill:#FFCBC2;" d="M679.058,415.959l1.251,27.585l0.232,8.676l-34.017-0.174c-0.831-0.004-1.5-0.681-1.496-1.512
								l0,0c0.003-0.622,0.389-1.178,0.971-1.399l14.671-6.746l-2.592-28.702"/>
							<path style="fill:#011E3B;" d="M643.54,451.681c0.348-1.09,0.986-2.313,1.629-2.59l15.556-6.699
								c8.574,3.475,19.673,0.819,19.673,0.819l1.98,11.712c-0.002,0.388-0.318,0.7-0.706,0.698h-37.872
								C643.039,455.616,643.529,451.715,643.54,451.681z"/>
							<path style="fill:none;stroke:#2C79E8;stroke-width:0.75;stroke-miterlimit:10;" d="M657.359,443.061
								c0.872,1.136,1.609,2.375,2.193,3.682"/>
							<path style="fill:none;stroke:#2C79E8;stroke-width:0.75;stroke-miterlimit:10;" d="M655.4,444.232
								c0.903,1.25,1.263,1.972,1.803,3.131"/>
							<path style="fill:none;stroke:#2C79E8;stroke-width:0.75;stroke-miterlimit:10;" d="M653.745,445.087
								c0.613,0.824,1.215,1.963,1.69,2.873"/>
						</g>
						
							<line style="fill:none;stroke:#2C79E8;stroke-width:0.75;stroke-miterlimit:10;" x1="682.178" y1="453.092" x2="643.38" y2="452.893"/>
						<path style="fill:none;stroke:#2C79E8;stroke-width:0.75;stroke-miterlimit:10;" d="M681.101,447.364
							c0,0-9.114,0.185-9.898,5.676"/>
						<path style="fill:none;stroke:#2C79E8;stroke-width:0.75;stroke-miterlimit:10;" d="M648.358,447.717
							c0,0,2.513,3.571,3.008,5.218"/>
					</g>
				</g>
				<path style="fill:#1F2677;" d="M678.16,293.607c0.786,9.538,0.721,21.321-0.729,32.83c2.501,50.584,5.959,112.311,5.959,112.311
					h-29.28c0,0-14.102-112.026-14.76-145.98"/>
				<path style="fill:none;stroke:#3A53CE;stroke-width:0.75;stroke-miterlimit:10;" d="M673.16,293.607
					c0.786,9.538,0.721,21.321-0.729,32.83c2.501,50.584,5.959,112.311,5.959,112.311"/>
				<path style="fill:none;stroke:#3A53CE;stroke-width:0.75;stroke-miterlimit:10;" d="M643.682,347.804
					c0,0-4.066-35.132-4.419-48.026"/>
				
					<line style="fill:none;stroke:#3A53CE;stroke-width:0.75;stroke-miterlimit:10;" x1="683.068" y1="432.954" x2="653.39" y2="432.954"/>
				
					<line style="fill:none;stroke:#3A53CE;stroke-width:0.75;stroke-miterlimit:10;" x1="634.876" y1="432.871" x2="605.391" y2="432.871"/>
				<path style="fill:none;stroke:#3A53CE;stroke-width:0.75;stroke-miterlimit:10;" d="M673.486,313.943
					c0,0-8.417,0.655-13.064-11.277"/>
				<path style="fill:none;stroke:#3A53CE;stroke-width:0.75;stroke-miterlimit:10;" d="M640.56,313.949
					c0,0-2.935-0.835-3.209-1.752s-1.071-11.788-1.071-11.788"/>
				<path style="fill:none;stroke:#3A53CE;stroke-width:0.75;stroke-miterlimit:10;" d="M625.533,302.666
					c0,0-0.664,9.798-11.413,11.284"/>
			</g>
			<g>
				<g>
					<path style="fill:#FFCBC2;" d="M585.857,237.637c0,0-13.916-14.725-14.772-14.59c-0.857,0.136,1.034,2.865,0.31,2.845
						c-0.724-0.02-5.095-6.082-5.914-5.718c-1.111,0.493,3.008,5.848,3.008,5.848s-1.09-0.974-1.93-0.268
						c-0.595,0.5,0.229,2.188,0.229,2.188s-1.086-0.521-1.692,0.011c-0.602,0.528,0.166,1.974,0.166,1.974s-1.115-1.133-1.732-0.067
						c-0.578,0.998,3.507,9.374,10.177,18.354"/>
				</g>
				<path style="fill:#B2D1FF;" d="M636.61,217.418c-6.968,0.626-14.483,4.017-19.089,9.965
					c-7.755,10.015-17.591,22.691-17.591,22.691l-16.123-16.48l-15.178,12.647c0,0,21.013,29.632,31.431,29.702
					c9.367,0.062,25.189-13.379,29.774-20.617C639.058,240.765,636.61,217.418,636.61,217.418z"/>
				<path style="fill:#F7633A;" d="M653.784,215.96c0,0-1.94,2.859-9.79,3.667c-5.932,0.611-7.384-2.209-7.384-2.209
					s-14.323,7.63-18.571,39.235c-4.248,31.605-4.663,48.15-4.663,48.15h67.247c0,0,0.226-24.042-1.741-44.712
					C676.859,238.84,672.394,220.88,653.784,215.96z"/>
				<path style="fill:none;stroke:#F7958B;stroke-width:0.5;stroke-miterlimit:10;" d="M572.357,227.244
					c0,0,0.744,3.121,1.891,5.614"/>
				<g>
					<path style="fill:#F7958B;" d="M563.979,231.835c0.583,0.67,1.187,1.324,1.826,1.936c0.318,0.307,0.649,0.603,0.998,0.865
						c0.172,0.132,0.356,0.254,0.54,0.344c0.184,0.117,0.388,0.115,0.442,0.054c0.064-0.094,0.022-0.34-0.033-0.53
						c-0.059-0.202-0.139-0.404-0.226-0.604c-0.178-0.398-0.384-0.787-0.601-1.171c-0.432-0.768-0.916-1.512-1.398-2.248
						l0.353-0.244c0.588,0.8,1.207,1.588,1.863,2.331c0.33,0.369,0.669,0.732,1.034,1.044c0.18,0.151,0.377,0.304,0.555,0.375
						c0.093,0.044,0.151,0.026,0.134,0.029c-0.02,0.027,0.022-0.038,0.012-0.141c-0.101-0.864-0.58-1.826-0.987-2.707
						c-0.433-0.895-0.904-1.779-1.395-2.644l0.381-0.233c0.55,0.857,1.143,1.694,1.756,2.506c0.31,0.403,0.63,0.8,0.982,1.155
						c0.175,0.175,0.362,0.344,0.557,0.46c0.095,0.053,0.198,0.085,0.246,0.071c0.036-0.001,0.066-0.05,0.077-0.163
						c0.012-0.448-0.176-0.959-0.339-1.429c-0.174-0.478-0.365-0.953-0.571-1.423c-0.411-0.939-0.859-1.864-1.33-2.777
						c0.522,0.885,1.021,1.784,1.486,2.704c0.435,0.937,0.964,1.819,1.057,2.947c0,0.133-0.064,0.38-0.294,0.444
						c-0.205,0.051-0.358-0.026-0.488-0.086c-0.252-0.139-0.452-0.316-0.646-0.496c-0.383-0.363-0.721-0.758-1.05-1.159
						c-0.657-0.803-1.244-1.65-1.818-2.512l0.381-0.233c0.508,0.873,0.989,1.755,1.438,2.659c0.224,0.453,0.439,0.911,0.633,1.383
						c0.184,0.482,0.387,0.938,0.416,1.534c-0.005,0.139,0.004,0.359-0.227,0.542c-0.235,0.146-0.458,0.071-0.588,0.018
						c-0.287-0.123-0.484-0.294-0.686-0.463c-0.393-0.344-0.735-0.72-1.07-1.101c-0.663-0.767-1.276-1.564-1.866-2.385l0.353-0.243
						c0.492,0.75,0.936,1.523,1.357,2.314c0.208,0.397,0.406,0.8,0.577,1.219c0.084,0.211,0.163,0.424,0.221,0.651
						c0.037,0.228,0.141,0.463-0.029,0.767c-0.269,0.265-0.606,0.118-0.78,0.013c-0.212-0.11-0.39-0.253-0.563-0.398
						c-0.346-0.291-0.662-0.608-0.965-0.935C565.091,233.224,564.525,232.537,563.979,231.835z"/>
				</g>
				<path style="fill:#B2D1FF;" d="M636.61,217.418c-13.784,26.488-14.701,91.755-14.701,91.755h-10.544
					c0,0,0.492-42.309,8.461-69.902C623.213,227.547,631.91,218.254,636.61,217.418"/>
				<path style="fill:none;stroke:#4152A5;stroke-width:0.75;stroke-linejoin:round;stroke-miterlimit:10;" d="M614.014,270.301
					c0,0,2.343-25.607,6.934-34.353"/>
				<path style="fill:none;stroke:#4152A5;stroke-width:0.75;stroke-linejoin:round;stroke-miterlimit:10;" d="M626.65,253.124
					l-2.106-20.266l3.534-1.902l-3.534-2.219c0,0,3.076-5.926,5.754-10.014"/>
				<path style="fill:#B2D1FF;" d="M653.53,215.954c-8.275,17.829-0.939,93.218-0.939,93.218h32.014c0,0-1.516-27.618-2.841-38.338
					c-1.326-10.72-10.04-45.103-10.04-45.103L653.53,215.954z"/>
				<g>
					<path style="fill:#DCDDEF;" d="M673.566,287.345l-30.897,0.433l0.026,1.89l32.627-0.458l0,0
						C675.309,288.167,674.522,287.332,673.566,287.345z"/>
					<path style="fill:#DCDDEF;" d="M605.046,290.197l43.409-0.609l-8.709-29.015c-0.447-1.488-1.727-2.487-3.159-2.467
						l-39.246,0.551c-0.871,0.012-1.479,0.943-1.208,1.848L605.046,290.197z"/>
					<path style="fill:#F2F5F9;" d="M603.096,290.224l43.409-0.609l-8.709-29.015c-0.446-1.488-1.727-2.487-3.159-2.467
						l-39.246,0.551c-0.871,0.012-1.479,0.943-1.208,1.847L603.096,290.224z"/>
					<path style="fill:#DCDDEF;" d="M615.687,274.699c0.273,1.356,1.797,2.437,3.404,2.414c1.606-0.023,2.687-1.14,2.413-2.496
						c-0.273-1.356-1.797-2.437-3.404-2.414C616.494,272.225,615.413,273.343,615.687,274.699z"/>
				</g>
				<g>
					<path style="fill:#FFCBC2;" d="M665.153,254.018c0,0,8.488,14.874,7.992,18.309c-0.374,2.591-23.511,8.531-23.511,8.531
						l1.045,14.571c0,0,38.709-3.289,43.207-11.053c6.157-10.627-10.892-38.135-10.892-38.135"/>
					<g>
						<g>
							<g>
								<path style="fill:#FFCBC2;" d="M654.127,279.982c-3.174,0.558-19.888,3.95-19.688,4.796c0.193,0.814,5.1,0.655,4.954,1.118
									c-0.208,0.658-3.839,1.539-5.92,1.844c-1.856,0.273-4.792,1.015-4.778,1.837c0.027,1.566,10.192-0.06,10.192-0.06
									s-11.258-0.296-11.37,1.016c-0.163,1.891,11.763,1.757,12.183,2.17c0,0-10.373-2.754-10.494-1.355
									c-0.12,1.4,9.081,4.089,11.924,3.891c-2.362-0.276-9.572-3.786-9.626-2.496c-0.054,1.29,6.187,3.109,7.186,3.185
									c8.204,0.62,15.645-1.159,15.645-1.159"/>
							</g>
						</g>
					</g>
					<g>
						<path style="fill:#F7958B;" d="M629.835,290.181c1.325-0.246,2.652-0.354,3.981-0.442c1.331-0.071,2.657-0.115,4.003-0.062
							c-0.652,0.176-1.315,0.28-1.978,0.371c-0.663,0.096-1.329,0.145-1.995,0.19C632.511,290.305,631.175,290.324,629.835,290.181z
							"/>
					</g>
					<g>
						<path style="fill:#F7958B;" d="M631.034,291.922c2.922-0.013,5.766,0.306,8.668,0.425c-0.712,0.18-1.445,0.235-2.173,0.268
							c-0.73,0.037-1.458,0.008-2.184-0.033C633.893,292.478,632.448,292.291,631.034,291.922z"/>
					</g>
					<g>
						<path style="fill:#F7958B;" d="M632.888,293.583c1.305,0.025,2.583,0.173,3.861,0.325c1.277,0.168,2.541,0.352,3.825,0.576
							c-0.648,0.093-1.301,0.094-1.95,0.076c-0.65-0.012-1.295-0.082-1.938-0.157C635.403,294.231,634.128,293.992,632.888,293.583z
							"/>
					</g>
				</g>
				<path style="fill:#B2D1FF;" d="M653.53,215.954c9.044,1.464,20.288,4.285,24.86,10.246c7.013,9.146,25.728,47.437,18.798,56.826
					c-5.893,7.984-38.592,14.033-38.592,14.033l-8.812-18.032l22.351-8.338l-13.906-30.333"/>
				<polyline style="fill:none;stroke:#4152A5;stroke-width:0.75;stroke-miterlimit:10;" points="649.784,279.028 672.135,270.69 
					660.927,246.241 				"/>
				
					<line style="fill:none;stroke:#4152A5;stroke-width:0.75;stroke-miterlimit:10;" x1="658.596" y1="297.06" x2="683.39" y2="291.01"/>
				
					<line style="fill:none;stroke:#4152A5;stroke-width:0.75;stroke-miterlimit:10;" x1="652.679" y1="277.948" x2="661.97" y2="296.237"/>
				<path style="fill:none;stroke:#4152A5;stroke-width:0.75;stroke-linejoin:round;stroke-miterlimit:10;" d="M649.634,254
					c1.432-9.402,7.485-17.061,7.485-17.061l-3.742-4.08l5.22-1.902c0,0,2.415-9.966,4.146-13.061"/>
			</g>
		</g>
		<g>
			<g>
				<path style="fill:#FFCBC2;" d="M555.476,241.21c0,0,5.195,11.804,6.536,20.649c1.341,8.845-10.949,33.816-10.949,33.816
					l-10.522-6.179c0,0,3.204-18.613,3.204-25.239c0-6.626-6.033-15.842-6.033-15.842"/>
				<g>
					<path style="fill:#FFCBC2;" d="M541.06,288.102c-1.352,4.093-7.216,15.307-6.615,15.954c0.601,0.646,2.716-3.272,3.11-2.649
						c0.394,0.623-2.451,6.871-1.678,7.357c1.047,0.658,3.619-5.897,3.619-5.897s-2.459,7.32-1.385,7.628
						c0.761,0.218,2.894-5.282,3.973-7.282c-0.893,2.316-1.896,6.24-1.102,6.45c0.788,0.208,2.32-3.506,3.645-6.289
						c-0.665,1.814-1.697,5.18-0.972,5.408c0.723,0.228,5.078-8.544,8.854-16.962"/>
				</g>
			</g>
			<g>
				<g>
					<path style="fill:#FFCBC2;" d="M534.005,340.761c-1.274,29.616,6.875,103.721,6.875,103.721l-9.149,5.825
						c0,0,28.145,1.308,28.962,0.485c0.818-0.824-1.032-6.464-1.032-6.464s0.818-87.538,1.635-100.503
						C562.114,330.861,535.279,311.145,534.005,340.761z"/>
					<path style="fill:#011E3B;" d="M553.688,450.72l6.744-3.682l-0.53-1.934l-8.754,5.625l-2.77,0.01l-9.76-4.818l-10.595,6.632
						c-1.224,0.766-0.677,2.658,0.767,2.652l14.241-0.052l4.545-3.162l1.291-0.005l0.011,3.145l12.274-0.034l-0.016-4.395
						L553.688,450.72z"/>
				</g>
				<g>
					<path style="fill:#FFCBC2;" d="M496.441,345.816c-2.033,41.617-1.282,98.624-1.282,98.624l-9.129,5.857
						c0,0,28.149,1.221,28.964,0.395c0.815-0.827-1.054-6.46-1.054-6.46s7.824-72.246,10.635-99.264
						C527.386,317.948,498.474,304.199,496.441,345.816z"/>
					<path style="fill:#011E3B;" d="M507.989,450.634l6.731-3.695l-0.536-1.932l-8.734,5.645l-2.77,0.02l-9.776-4.784l-10.572,6.669
						c-1.222,0.771-0.668,2.66,0.776,2.649l14.241-0.101l4.534-3.178l1.291-0.009l0.022,3.145l12.274-0.066l-0.031-4.395
						L507.989,450.634z"/>
				</g>
				<path style="fill:#0F43AA;" d="M547.414,277.879c2.419,1.673,7.844,9.365,10.09,16.932c5.279,17.786,5.358,57.097,5.358,57.097
					h-67.883c0,0,0.399-37.775,3.037-54.233c1.405-8.765,5.264-16.387,7.629-19.728"/>
				<path style="fill:none;stroke:#0F1D49;stroke-width:0.75;stroke-miterlimit:10;" d="M509.452,277.389
					c-2.036,1.714-5.458,8.085-6.428,15.303c-3.274,24.388-2.583,59.216-2.583,59.216"/>
			</g>
			<g>
				<path style="fill:#2C79E8;" d="M530.85,216.341c20.31,1.29,27.03,26.66,27.03,26.66l-14.346,9.904"/>
				
					<line style="fill:none;stroke:#0F1D49;stroke-width:0.75;stroke-miterlimit:10;" x1="549.666" y1="244.505" x2="556.791" y2="239.742"/>
				<path style="fill:#FFCBC2;" d="M493.878,228.508c0,0-15.153,11.681-17.581,11.736c-2.51,0.057-22.062-18.176-22.062-18.176
					l-10.283,11.997c0,0,20.621,28.114,31.677,28.114c14.677,0,30.296-16.106,30.296-16.106"/>
				<path style="fill:#2C79E8;" d="M515.894,216.385c0,0,2.349,1.787,6.898,1.253s8.217-1.51,8.217-1.51
					c0.044,0.116,18.319,8.488,18.903,19.062c0.652,11.799,0.612,18.811-2.465,42.759c-7.817,0-43.042,0-41.803,0
					c0,0-6.498-29.31-6.498-40.534C499.147,226.189,515.894,216.385,515.894,216.385z"/>
				<path style="fill:#2C79E8;" d="M515.894,216.385c0,0-6.213-0.257-11.544,2.742c-9.162,5.155-16.853,13.378-16.853,13.378
					L499.668,254l12.783-9.042"/>
				<path style="fill:none;stroke:#0F1D49;stroke-width:0.75;stroke-miterlimit:10;" d="M550.25,248.268
					c0.305-9.883-1.202-16.648-1.202-16.648"/>
				
					<line style="fill:none;stroke:#0F1D49;stroke-width:0.75;stroke-miterlimit:10;" x1="490.574" y1="229.482" x2="503.024" y2="252.149"/>
				
					<line style="fill:none;stroke:#0F1D49;stroke-width:0.75;stroke-miterlimit:10;" x1="500.947" y1="253.623" x2="511.64" y2="246.035"/>
				<g>
					<path style="fill:#FFCBC2;" d="M461.705,228.846c0,0-17.29-15.982-18.36-15.609c-1.071,0.373,1.994,3.446,1.057,3.588
						c-0.936,0.141-7.801-7.121-8.772-6.463c-1.315,0.892,4.607,6.909,4.607,6.909s-1.565-1.058-2.482,0.045
						c-0.649,0.781,1.194,3.212,1.194,3.212s-1.801-1.195-2.458-0.37c-0.652,0.819,0.953,3.276,0.953,3.276
						s-1.281-0.947-1.706-0.069c-0.677,1.399,7.873,11.388,15.819,20.178"/>
				</g>
			</g>
			<g>
				<path style="fill:#FFCBC2;" d="M529.979,205.596l1.552,11.634c0,0-7.577,7.807-15.637-0.846l-0.451-6.525L529.979,205.596z"/>
				<path style="fill:#FFCBC2;" d="M517.271,190.375c0,0-10.94,12.373-6.939,17.484c2.079,2.657,11.051,5.913,14.285,3.893
					c2.4-1.499,6.91-11.974,5.885-14.019C526.585,189.917,517.271,190.375,517.271,190.375z"/>
				<path style="fill:#011E3B;" d="M517.763,192.618c-0.679,7.205,1.45,10.873,1.45,10.873s-4.763,15.071-3.722,16.508
					c1.041,1.437,16.448,3.669,23.948,0.464c0,0,1.191-22.768-5.692-28.548c-6.547-5.498-15.016-5.004-19.637-2.131
					c0,0,0.412,1.366,2.078,2.098c0.819,0.36,1.737,0.767,1.737,0.767"/>
				<path style="fill:#FFCBC2;" d="M517.732,201.66c1.336-1.694,2.418-1.424,3.008-0.494c0.787,1.24-0.791,3.818-1.527,4.258
					c-1.49,0.891-2.696,0.798-2.811-0.412"/>
				<path style="fill:none;stroke:#E88872;stroke-width:0.5;stroke-linejoin:round;stroke-miterlimit:10;" d="M515.49,210.98
					c1.575,0,2.081-1.322,2.081-1.322"/>
				<g>
					<g>
						<path style="fill:#28364C;" d="M514.393,197.372c-0.458,0.382-0.887,1.074-0.634,1.582c0.072,0.144,0.21,0.213,0.367,0.197
							C515.154,199.05,515.35,196.575,514.393,197.372z"/>
					</g>
				</g>
				<path style="fill:none;stroke:#28364C;stroke-width:0.75;stroke-miterlimit:10;" d="M514.522,195.489
					c0.641,0.227,1.681,0.81,2.061,1.62"/>
				<path style="fill:#FFFFFF;" d="M513.169,202.972l-2.252-1.204c0,0-1.479,2.766-0.43,3.35
					C511.645,205.763,513.169,202.972,513.169,202.972z"/>
				<g>
					<path style="fill:#011E3B;" d="M529.911,189.773c-0.965-0.246-1.639-1.254-1.612-2.25c0.027-0.996,0.682-1.919,1.561-2.387
						c0.879-0.468,1.947-0.513,2.907-0.246c0.366,0.102,0.724,0.249,1.03,0.475c1.246,0.922,1.214,2.914,0.331,4.188
						c-0.361,0.521-0.864,0.978-1.48,1.123c-0.617,0.145-1.349-0.098-1.631-0.665"/>
				</g>
			</g>
		</g>
		<g>
			<g>
				<path style="fill:#FFFFFF;stroke:#ABB3ED;stroke-linejoin:round;stroke-miterlimit:10;" d="M373.861,422.304
					c-18.565-5.61-30.859-11.958-41.006-22.063c-10.782-10.737-14.596-21.172-17.519-35.779
					c-4.075-20.361-8.494-52.842-30.534-60.614c-20.49-7.226-38.732,9.066-49.181,25.786c-13.432,21.493-17.498,43.01-17.52,68.264
					c-0.018,20.436,5.239,57.941,69.847,57.941c0,0,44.111,0,76.769,0C407.137,455.838,400.53,430.362,373.861,422.304z"/>
				<g>
					<path style="fill:#EDEEF7;" d="M368.145,420.931c-3.803-7.806-19.945-5.462-37.367-23.718
						c-10.09-10.573-14.285-19.708-17.145-33.467c-2.42-11.636-11.48-50.511-27.591-52.041c-6.49-0.616-13.124,0.198-18.836,3.335
						c-7.924,4.351-14.081,11.464-18.439,19.377c-4.357,7.913-7.033,16.635-9.204,25.402c-3.014,12.171-5.121,20.783-3.592,33.227
						c2.596,21.129,15.866,39.772,36.512,44.712c20.809,4.979,39.613,3.255,64.229,3.026
						C346.129,440.696,376.004,437.06,368.145,420.931z"/>
				</g>
				<g>
					<g>
						<path style="fill:#ABB3ED;" d="M260.756,319.109c-8.618,7.449-14.672,17.523-18.908,27.998
							c-4.727,11.69-7.342,24.396-7.311,37.019c0.029,11.719,2.389,23.842,8.668,33.889c7.098,11.358,18.375,17.661,31.109,20.972
							c20.202,5.252,41.816,3.897,62.397,2.126c0.41-0.035,0.424-0.661,0-0.65c-18.003,0.49-36.13,2.053-54.011-0.962
							c-13.946-2.352-27.776-7.441-36.457-19.15c-14.263-19.237-12.623-47.012-5.232-68.575
							c4.112-11.996,10.542-23.786,20.146-32.264C261.434,319.268,261.031,318.872,260.756,319.109L260.756,319.109z"/>
					</g>
				</g>
			</g>
			<g>
				<g>
					<g>
						<g>
							<path style="fill:#995037;" d="M376.019,424.981l26.176,19.514l4.918,7.551l28.109-19.16c0.686-0.468,0.863-1.404,0.395-2.09
								l0,0c-0.351-0.514-0.981-0.759-1.587-0.617l-15.936,2.607l-25.949-21.418"/>
							<path style="fill:#FFE1CC;" d="M437.491,430.915c-0.897-0.709-2.111-1.367-2.799-1.237l-16.643,3.141
								c-5.167,7.675-15.854,11.677-15.854,11.677l4.905,10.818c0.218,0.32,0.655,0.403,0.975,0.185l31.402-21.171
								C440.106,433.898,437.519,430.938,437.491,430.915z"/>
							<path style="fill:none;stroke:#A5634C;stroke-width:0.75;stroke-miterlimit:10;" d="M421.215,431.493
								c-0.088,1.429-0.007,2.869,0.24,4.279"/>
							<path style="fill:none;stroke:#A5634C;stroke-width:0.75;stroke-miterlimit:10;" d="M423.494,431.369
								c-0.05,1.541,0.055,2.341,0.256,3.604"/>
							<path style="fill:none;stroke:#A5634C;stroke-width:0.75;stroke-miterlimit:10;" d="M425.344,431.152
								c-0.048,1.026,0.091,2.307,0.205,3.327"/>
						</g>
						
							<line style="fill:none;stroke:#A5634C;stroke-width:0.75;stroke-miterlimit:10;" x1="406.243" y1="453.684" x2="438.301" y2="431.831"/>
						<path style="fill:none;stroke:#A5634C;stroke-width:0.75;stroke-miterlimit:10;" d="M403.934,448.332
							c0,0,7.661-4.942,11.38-0.827"/>
						<path style="fill:none;stroke:#A5634C;stroke-width:0.75;stroke-miterlimit:10;" d="M431.281,430.322
							c0,0-0.087,4.366,0.422,6.008"/>
					</g>
				</g>
				<g>
					<g>
						<g>
							<path style="fill:#995037;" d="M338.173,415.959l11.192,27.251l-0.143,9.011l34.017-0.174c0.83-0.004,1.5-0.681,1.496-1.512
								l0,0c-0.003-0.622-0.389-1.178-0.971-1.399l-14.671-6.746l-9.94-28.702"/>
							<path style="fill:#FFE1CC;" d="M386.223,451.681c-0.348-1.09-0.986-2.313-1.629-2.59l-15.556-6.699
								c-8.574,3.475-19.673,0.819-19.673,0.819l-1.98,11.712c0.002,0.388,0.318,0.7,0.706,0.698h37.872
								C386.724,455.616,386.234,451.715,386.223,451.681z"/>
							<path style="fill:none;stroke:#A5634C;stroke-width:0.75;stroke-miterlimit:10;" d="M372.405,443.061
								c-0.871,1.136-1.609,2.375-2.193,3.682"/>
							<path style="fill:none;stroke:#A5634C;stroke-width:0.75;stroke-miterlimit:10;" d="M374.364,444.232
								c-0.903,1.25-1.264,1.972-1.803,3.131"/>
							<path style="fill:none;stroke:#A5634C;stroke-width:0.75;stroke-miterlimit:10;" d="M376.019,445.087
								c-0.613,0.824-1.215,1.963-1.69,2.873"/>
						</g>
						
							<line style="fill:none;stroke:#A5634C;stroke-width:0.75;stroke-miterlimit:10;" x1="347.585" y1="453.092" x2="386.383" y2="452.893"/>
						<path style="fill:none;stroke:#A5634C;stroke-width:0.75;stroke-miterlimit:10;" d="M348.663,447.364
							c0,0,9.114,0.185,9.898,5.676"/>
						<path style="fill:none;stroke:#A5634C;stroke-width:0.75;stroke-miterlimit:10;" d="M381.406,447.717
							c0,0-2.513,3.571-3.009,5.218"/>
					</g>
				</g>
				<g>
					<g>
						<path style="fill:#995037;" d="M289.642,301.643c0,0,7.413,11.692,4.25,16.731c-1.645,2.619-7.825,4.387-10.964,2.851
							c-2.33-1.14-7.432-10.263-6.691-12.224C279.067,301.504,289.642,301.643,289.642,301.643z"/>
						<path style="fill:#995037;" d="M275.653,318.058l-0.701,9.06c0,0,5.767,14.405,16.199,1.427l-0.462-9.998L275.653,318.058z"/>
						<g>
							<path style="fill:#2D1006;" d="M272.469,315.346c-1.073-2.607-1.971-3.964-2.417-7.146c-0.467-3.324,2.243-4.296,2.243-4.296
								s-0.462,0.375,0.999-2.509c1.38-2.724,6.01-2.602,8.796-3.047c3.658-0.585,9.071-3.837,11.234-2.394
								c0.943,0.629,0.94,6.279-2.04,7.939c-1.703,0.949-4.5,0.413-6.468,0.724c-3.668,0.58-4.523,1.353-4.973,3.694
								c-0.25,1.298-2.664,1.064-1.297,3.729c0.212,0.414,0.259,0.784,0.332,1.094l-1.457,1.043
								c-1.857,1.259,2.186,4.506,1.885,6.065c-0.158,0.817-1.8,1.169-3.252,0.501C274.604,320.074,273.636,318.181,272.469,315.346
								z"/>
						</g>
						<path style="fill:#995037;" d="M278.359,314.322c-1.652-1.699-2.803-1.282-3.343-0.199c-0.72,1.444,1.298,4.082,2.152,4.48
							c1.729,0.805,3.037,0.566,3.025-0.769"/>
						<path style="fill:none;stroke:#6D221D;stroke-width:0.75;stroke-linejoin:round;stroke-miterlimit:10;" d="M290.817,321.2
							c-5.589,1.242-8.474-0.382-8.474-0.382"/>
						<path style="fill:none;stroke:#6D221D;stroke-width:0.75;stroke-miterlimit:10;" d="M288.928,308.662
							c0,0,2.677,2.895,2.633,3.835c-0.044,0.941-2.182,1.418-2.182,1.418"/>
						<path style="fill:#FFFFFF;" d="M292.606,314.281l-5.744,1.833c0,0,1.644,2.845,4.729,1.622
							C293.791,316.863,292.606,314.281,292.606,314.281z"/>
						<g>
							<g>
								<path style="fill:#212237;" d="M290.498,307.478c0.093,0.285,0.207,0.565,0.335,0.836c0.217,0.459,0.897,0.059,0.681-0.398
									c-0.114-0.242-0.244-0.477-0.388-0.702C290.924,306.897,290.372,307.092,290.498,307.478L290.498,307.478z"/>
							</g>
						</g>
						
							<path style="fill:none;stroke:#212237;stroke-width:0.5;stroke-linecap:round;stroke-linejoin:round;stroke-miterlimit:10;" d="
							M289.021,306.164c0,0,0.695-1.37,2.164-0.64"/>
						<g>
							<g>
								<path style="fill:#212237;" d="M284.067,310.194c0.068,0.258,0.153,0.512,0.253,0.76c0.188,0.465,0.951,0.262,0.761-0.21
									c-0.112-0.279-0.238-0.552-0.385-0.815C284.503,309.587,283.968,309.819,284.067,310.194L284.067,310.194z"/>
							</g>
						</g>
						
							<path style="fill:none;stroke:#212237;stroke-width:0.5;stroke-linecap:round;stroke-linejoin:round;stroke-miterlimit:10;" d="
							M284.614,307.617c0,0-1.524-0.245-2.726,1.712"/>
					</g>
					<g>
						<path style="fill:#995037;" d="M317.978,346.864c0,0,8.88,17.134,11.461,17.464c3.115,0.398,27.687-17.762,27.687-17.762
							l9.923,12.021c0,0-22.998,27.918-38.475,27.918c-15.476,0-29.86-27.925-29.86-27.925"/>
						<path style="fill:#FFE1CC;" d="M274.952,327.118c0,0,2.252,4.059,8.876,3.759c5.051-0.229,7.323-2.332,7.323-2.332
							s15.12,3.936,18.072,23.841c2.749,18.542,6.202,50.221,6.202,50.221l-57.426,3.858c0,0-1.399-20.832,0.717-45.039
							C260.3,343.314,274.952,327.118,274.952,327.118z"/>
						<g>
							<path style="fill:#DCDDEF;" d="M273.604,389.718l30.897,0.433l-0.026,1.89l-32.627-0.458l0,0
								C271.861,390.54,272.648,389.705,273.604,389.718z"/>
							<path style="fill:#DCDDEF;" d="M342.124,392.57l-43.409-0.609l8.709-29.015c0.447-1.488,1.727-2.487,3.159-2.467l39.246,0.55
								c0.871,0.012,1.479,0.943,1.208,1.848L342.124,392.57z"/>
							<path style="fill:#F2F5F9;" d="M344.074,392.597l-43.409-0.609l8.709-29.015c0.447-1.488,1.726-2.487,3.159-2.467
								l39.246,0.551c0.871,0.012,1.479,0.943,1.208,1.847L344.074,392.597z"/>
							<path style="fill:#DCDDEF;" d="M331.483,375.256c-0.273,1.356-1.797,2.437-3.404,2.414c-1.606-0.023-2.687-1.14-2.413-2.496
								c0.273-1.356,1.797-2.437,3.404-2.414C330.676,372.783,331.757,373.9,331.483,375.256z"/>
						</g>
						<path style="fill:#FFE1CC;" d="M291.151,328.546c5.714-0.384,13.062,1.047,17.11,3.676
							c10.732,6.971,15.235,21.898,15.235,21.898l-14.791,3.763"/>
						<g>
							<g>
								<path style="fill:#995037;" d="M269.824,361.022c0,0-4.342,15.249-3.339,18.57c0.757,2.506,22.692,5.65,22.692,5.65
									l1.143,14.563c0,0-38.766,2.529-44.373-4.476c-7.675-9.588,1.056-38.727,1.056-38.727"/>
								<g>
									<g>
										<g>
											<path style="fill:#995037;" d="M284.605,385.047c3.222,0.078,20.254,0.935,20.183,1.801
												c-0.069,0.834-4.945,1.409-4.731,1.846c0.303,0.62,4.026,0.948,6.129,0.939c1.876-0.007,4.89,0.288,4.999,1.103
												c0.207,1.552-10.087,1.463-10.087,1.463s11.087-1.974,11.395-0.694c0.444,1.846-11.369,3.494-11.722,3.965
												c0,0,9.846-4.273,10.174-2.907c0.328,1.366-8.369,5.4-11.209,5.629c2.295-0.626,8.899-5.173,9.145-3.906
												c0.246,1.267-5.654,3.998-6.63,4.222c-8.019,1.838-15.643,1.19-15.643,1.19"/>
										</g>
									</g>
								</g>
								<g>
									<path style="fill:#6D221D;" d="M310.148,391.504c-1.304,0.342-2.628,0.523-3.957,0.655
										c-0.666,0.055-1.332,0.106-2.002,0.11c-0.669,0.009-1.34,0.005-2.011-0.071c1.323-0.253,2.641-0.408,3.967-0.536
										C307.472,391.549,308.801,391.459,310.148,391.504z"/>
								</g>
								<g>
									<path style="fill:#6D221D;" d="M309.222,393.404c-1.344,0.577-2.744,0.978-4.163,1.296
										c-0.712,0.149-1.428,0.286-2.155,0.359c-0.725,0.077-1.458,0.132-2.189,0.06
										C303.566,394.568,306.331,393.827,309.222,393.404z"/>
								</g>
								<g>
									<path style="fill:#6D221D;" d="M307.637,395.324c-1.165,0.59-2.39,1.016-3.633,1.379c-0.625,0.17-1.252,0.335-1.893,0.444
										c-0.639,0.114-1.285,0.211-1.939,0.216c1.236-0.413,2.458-0.784,3.696-1.141
										C305.108,395.881,306.35,395.544,307.637,395.324z"/>
								</g>
							</g>
						</g>
						<path style="fill:#FFE1CC;" d="M274.952,327.118c0,0-11.618,0.78-16.039,4.109c-11.834,8.909-14.546,26.335-14.546,26.335
							l25.955,6.766l4.664-14.327"/>
						<path style="fill:none;stroke:#A5634C;stroke-width:0.75;stroke-miterlimit:10;" d="M269.273,364.398
							c1.357-6.641,3.55-12.012,3.55-12.012"/>
						<path style="fill:none;stroke:#A5634C;stroke-width:0.75;stroke-miterlimit:10;" d="M310.052,357.442
							c-1.888-9.949-4.279-16.047-4.279-16.047"/>
						
							<line style="fill:none;stroke:#A5634C;stroke-width:0.75;stroke-miterlimit:10;" x1="245.285" y1="353.515" x2="270.099" y2="360.845"/>
						
							<line style="fill:none;stroke:#A5634C;stroke-width:0.75;stroke-miterlimit:10;" x1="322.19" y1="350.606" x2="309.361" y2="354.055"/>
						<path style="fill:none;stroke:#A5634C;stroke-width:0.75;stroke-miterlimit:10;" d="M272.475,327.359
							c0,0,3.109,6.083,12.181,5.474s9.455-4.339,9.455-4.339"/>
						<g>
							<path style="fill:#995037;" d="M350.559,351.597c0,0,17.135-13.31,17.997-13.039c0.861,0.271-1.504,2.791-0.756,2.881
								c0.748,0.09,6.178-5.48,6.966-4.98c1.068,0.678-4.517,5.991-4.517,5.991s6.493-5.456,7.249-4.599
								c0.536,0.607-5.834,6.698-5.834,6.698s6.44-4.703,6.982-4.062c0.538,0.636-5.15,6.047-5.15,6.047s4.468-3.922,5.186-3.264
								c0.719,0.658-8.777,12.8-17.021,21.023"/>
						</g>
						<path style="fill:none;stroke:#6D221D;stroke-width:0.75;stroke-linejoin:round;stroke-miterlimit:10;" d="M366.589,342.184
							c0,0-1.245,3.099-2.807,5.49"/>
						<path style="fill:none;stroke:#6D221D;stroke-width:0.75;stroke-linejoin:round;stroke-miterlimit:10;" d="M365.878,349.126
							c1.827-1.866,4.256-2.192,6.536-2.086"/>
					</g>
				</g>
				<g>
					<path style="fill:#050C26;" d="M283.081,428.6c0,0-1.55,9.294,7.893,8.66c22.957-1.542,59.552-28.894,59.552-28.894
						l44.476,34.426l18.296-19.517c0,0-30.108-25.129-38.96-31.92c-3.692-2.832-11.335-9.239-19.899-8.664
						c-8.564,0.575-57.006,19.447-57.006,19.447"/>
					<path style="fill:none;stroke:#102059;stroke-width:0.75;stroke-miterlimit:10;" d="M290.639,432.271
						c19.795-1.33,49.66-22.872,57.586-27.682c1.195-0.725,2.708-0.637,3.814,0.219l45.363,35.424"/>
					<path style="fill:#131C5E;" d="M259.992,406.333c0,0-3.856,33.993,24.441,32.092c19.945-1.34,45.006-29.726,45.006-29.726
						l15.401,34.849l26.194-7.763c0,0-12.882-32.354-17.3-43.339c-3.759-9.348-10.545-16.694-17.314-17.579
						s-13.913,2.21-22.363,7.111c-6.815,3.952-28.03,22.606-28.03,22.606"/>
					<path style="fill:none;stroke:#30409E;stroke-width:0.75;stroke-miterlimit:10;" d="M267.492,405.829
						c0,0-1.68,28.099,18.563,26.739c12.133-0.815,35.98-24.912,42.737-30.742c0.898-0.775,2.287-0.456,2.764,0.629l17.507,39.841"
						/>
					<path style="fill:none;stroke:#30409E;stroke-width:0.75;stroke-miterlimit:10;" d="M267.723,412.849
						c0,0,8.03-0.988,8.65-7.617"/>
					
						<line style="fill:none;stroke:#30409E;stroke-width:0.75;stroke-miterlimit:10;" x1="342.7" y1="438.706" x2="369.042" y2="430.783"/>
					
						<line style="fill:none;stroke:#102059;stroke-width:0.75;stroke-miterlimit:10;" x1="390.745" y1="439.496" x2="409.106" y2="419.783"/>
				</g>
			</g>
		</g>
		<g>
			<g>
				<g>
					<path style="fill:#F9BBAF;" d="M171.336,199.907c0.027-0.432,0.556-0.663,0.985-0.605c0.611,0.083,1.121,0.546,1.398,1.096
						c0.277,0.55,0.352,1.18,0.37,1.796c0.016,0.572-0.018,1.167-0.282,1.676c-0.469,0.904-1.691,1.327-2.618,0.905"/>
				</g>
				<path style="fill:#FFCBC2;" d="M170.806,191.798c0,0,3.565,13.596,1.606,16.384c-2.934,4.176-9.913,4.498-12.855,2.57
					c-2.467-1.617-4.493-10.28-4.493-12.529C155.064,192.119,167.593,188.585,170.806,191.798z"/>
				<path style="fill:#FFCBC2;" d="M152.74,207.805l-1.393,11.942c0,0,4.46,4.819,11.207,4.819s6.746-4.498,6.746-4.498
					l-1.285-10.28l-10.372-10.885L152.74,207.805"/>
				<g>
					<path style="fill:#4A1A1A;" d="M159.018,197.83c-0.013-0.781-0.031-1.563-0.052-2.344c-0.004-0.156-0.077-1.831-0.235-1.862
						c3.333,0.667,6.753,0.896,10.145,0.681c1.08-0.068,2.204-0.197,3.113-0.785c0.824-0.533,0.652-8.315-9.248-8.691
						c-1.891-0.072-3.857-0.017-5.527,0.875c-1.669,0.892-4.23,2.605-4.272,4.497c-2.427,0.814-5.017,5.622-3.613,10.713
						c0.789,2.862,1.306,5.818,3.41,6.892c2.677-1.092,4.505-4.099,4.97-4.749C158.709,201.662,159.047,199.497,159.018,197.83z"/>
				</g>
				<path style="fill:none;stroke:#F7A794;stroke-width:0.75;stroke-miterlimit:10;" d="M168.228,211.497
					c0,0-4.681,0.923-7.905-0.808c-2.543-1.365-3.459-4.526-3.459-4.526"/>
				<g>
					<path style="fill:#FFCBC2;" d="M158.452,201.722c-0.296-0.501-1.286-1.152-1.83-1.094c-0.544,0.058-1.041,0.385-1.422,0.813
						c-1.785,2.008,0.158,5.841,2.893,5.418c1.004-0.156,0.73-1.484,0.73-1.484"/>
				</g>
				<path style="fill:none;stroke:#F7A794;stroke-width:0.5;stroke-miterlimit:10;" d="M168.52,198.903c0,0,2.08,3.202,1.883,4.092
					c-0.197,0.891-2.316,0.995-2.316,0.995"/>
				<path style="fill:#FFFFFF;" d="M170.409,205.087l-5.782,0.807c0,0,1.102,2.984,4.247,2.324
					C171.116,207.746,170.409,205.087,170.409,205.087z"/>
				<g>
					<g>
						<path style="fill:#212237;" d="M170.212,198.089c0.038,0.258,0.093,0.512,0.16,0.764c0.13,0.49,0.903,0.279,0.761-0.21
							c-0.073-0.251-0.157-0.496-0.258-0.737C170.704,197.497,170.146,197.647,170.212,198.089L170.212,198.089z"/>
					</g>
				</g>
				<path style="fill:none;stroke:#212237;stroke-width:0.5;stroke-linecap:round;stroke-linejoin:round;stroke-miterlimit:10;" d="
					M169.018,196.535c0,0,0.888-1.193,2.17-0.256"/>
				<g>
					<g>
						<path style="fill:#212237;" d="M163.617,199.535c0.026,0.291,0.07,0.58,0.129,0.866c0.101,0.495,0.875,0.287,0.761-0.21
							c-0.058-0.254-0.128-0.503-0.214-0.748C164.172,199.102,163.58,199.124,163.617,199.535L163.617,199.535z"/>
					</g>
				</g>
				<path style="fill:none;stroke:#212237;stroke-width:0.5;stroke-linecap:round;stroke-linejoin:round;stroke-miterlimit:10;" d="
					M164.574,197.198c0,0-1.414-0.484-2.883,1.187"/>
			</g>
			<g>
				<g>
					<g>
						<g>
							<path style="fill:#FFCBC2;" d="M173.565,415.959l2.749,27.585l-0.232,8.676l34.017-0.174c0.83-0.004,1.5-0.681,1.496-1.512
								l0,0c-0.003-0.622-0.389-1.178-0.971-1.399l-14.671-6.746l-1.408-28.702"/>
							<path style="fill:#011E3B;" d="M213.083,451.681c-0.348-1.09-0.986-2.313-1.629-2.59l-15.556-6.699
								c-8.574,3.475-19.673,0.819-19.673,0.819l-1.98,11.712c0.002,0.388,0.318,0.7,0.706,0.698h37.872
								C213.584,455.616,213.094,451.715,213.083,451.681z"/>
							<path style="fill:none;stroke:#2C79E8;stroke-width:0.75;stroke-miterlimit:10;" d="M199.264,443.061
								c-0.872,1.136-1.609,2.375-2.193,3.682"/>
							<path style="fill:none;stroke:#2C79E8;stroke-width:0.75;stroke-miterlimit:10;" d="M201.223,444.232
								c-0.903,1.25-1.264,1.972-1.803,3.131"/>
							<path style="fill:none;stroke:#2C79E8;stroke-width:0.75;stroke-miterlimit:10;" d="M202.878,445.087
								c-0.613,0.824-1.215,1.963-1.691,2.873"/>
						</g>
						
							<line style="fill:none;stroke:#2C79E8;stroke-width:0.75;stroke-miterlimit:10;" x1="174.445" y1="453.092" x2="213.243" y2="452.893"/>
						<path style="fill:none;stroke:#2C79E8;stroke-width:0.75;stroke-miterlimit:10;" d="M175.522,447.364
							c0,0,9.114,0.185,9.898,5.676"/>
						<path style="fill:none;stroke:#2C79E8;stroke-width:0.75;stroke-miterlimit:10;" d="M208.265,447.717
							c0,0-2.513,3.571-3.008,5.218"/>
					</g>
				</g>
				<path style="fill:#2C79E8;" d="M189.48,297.496c5.847,42.011,11.087,141.251,11.087,141.251h-29.288
					c0,0-6.04-62.039-11.171-106.92c-12.888-21.327-11.885-44.427-13.339-47.497"/>
				<path style="fill:none;stroke:#0F1D49;stroke-width:0.75;stroke-miterlimit:10;" d="M175.279,438.748
					c0,0-7.241-68.524-12.372-113.405"/>
				<g>
					<g>
						<g>
							<path style="fill:#FFCBC2;" d="M126.521,415.959l-1.251,27.585l-0.232,8.676l34.017-0.174c0.83-0.004,1.5-0.681,1.496-1.512
								l0,0c-0.004-0.622-0.389-1.178-0.971-1.399l-14.671-6.746l2.592-28.702"/>
							<path style="fill:#011E3B;" d="M162.038,451.681c-0.348-1.09-0.986-2.313-1.629-2.59l-15.556-6.699
								c-8.574,3.475-19.673,0.819-19.673,0.819l-1.98,11.712c0.002,0.388,0.318,0.7,0.706,0.698h37.872
								C162.54,455.616,162.049,451.715,162.038,451.681z"/>
							<path style="fill:none;stroke:#2C79E8;stroke-width:0.75;stroke-miterlimit:10;" d="M148.22,443.061
								c-0.871,1.136-1.609,2.375-2.193,3.682"/>
							<path style="fill:none;stroke:#2C79E8;stroke-width:0.75;stroke-miterlimit:10;" d="M150.178,444.232
								c-0.903,1.25-1.264,1.972-1.803,3.131"/>
							<path style="fill:none;stroke:#2C79E8;stroke-width:0.75;stroke-miterlimit:10;" d="M151.834,445.087
								c-0.613,0.824-1.215,1.963-1.69,2.873"/>
						</g>
						
							<line style="fill:none;stroke:#2C79E8;stroke-width:0.75;stroke-miterlimit:10;" x1="123.4" y1="453.092" x2="162.198" y2="452.893"/>
						<path style="fill:none;stroke:#2C79E8;stroke-width:0.75;stroke-miterlimit:10;" d="M124.478,447.364
							c0,0,9.114,0.185,9.898,5.676"/>
						<path style="fill:none;stroke:#2C79E8;stroke-width:0.75;stroke-miterlimit:10;" d="M157.221,447.717
							c0,0-2.513,3.571-3.008,5.218"/>
					</g>
				</g>
				<path style="fill:#2C79E8;" d="M127.418,293.607c-0.786,9.538-0.721,21.321,0.729,32.83
					c-2.5,50.584-5.959,112.311-5.959,112.311h29.28c0,0,14.102-112.026,14.76-145.98"/>
				<path style="fill:none;stroke:#0F1D49;stroke-width:0.75;stroke-miterlimit:10;" d="M132.418,293.607
					c-0.786,9.538-0.721,21.321,0.729,32.83c-2.5,50.584-5.959,112.311-5.959,112.311"/>
				<path style="fill:none;stroke:#0F1D49;stroke-width:0.75;stroke-miterlimit:10;" d="M161.896,347.804
					c0,0,4.066-35.132,4.419-48.026"/>
				
					<line style="fill:none;stroke:#0F1D49;stroke-width:0.75;stroke-miterlimit:10;" x1="122.511" y1="432.954" x2="152.189" y2="432.954"/>
				
					<line style="fill:none;stroke:#0F1D49;stroke-width:0.75;stroke-miterlimit:10;" x1="170.702" y1="432.871" x2="200.188" y2="432.871"/>
				<path style="fill:none;stroke:#0F1D49;stroke-width:0.75;stroke-miterlimit:10;" d="M132.092,313.943
					c0,0,8.417,0.655,13.064-11.277"/>
				<path style="fill:none;stroke:#0F1D49;stroke-width:0.75;stroke-miterlimit:10;" d="M165.019,313.949
					c0,0,2.935-0.835,3.209-1.752c0.274-0.918,1.071-11.788,1.071-11.788"/>
				<path style="fill:none;stroke:#0F1D49;stroke-width:0.75;stroke-miterlimit:10;" d="M180.045,302.666
					c0,0,0.664,9.798,11.413,11.284"/>
			</g>
			<g>
				<path style="fill:#FFCBC2;" d="M196.523,241.167c0,0,6.791,9.524,8.977,9.954c2.186,0.43,21.112-20.702,21.112-20.702
					l11.528,8.899c0,0-17.16,34.681-33.272,35.611C190.964,275.731,177.5,254,177.5,254"/>
				<path style="fill:#F7633A;" d="M151.794,215.96c0,0,1.94,2.859,9.79,3.667c5.932,0.611,7.384-2.209,7.384-2.209
					s14.323,7.63,18.571,39.235c4.248,31.605,4.663,48.15,4.663,48.15h-67.247c0,0-0.226-24.042,1.741-44.712
					C128.719,238.84,133.184,220.88,151.794,215.96z"/>
				<g>
					<polygon style="fill:#EDEEF7;" points="173.641,311.007 142.689,305.05 141.689,304.05 152.769,258.173 185.72,266.131 
						186.72,267.131 					"/>
					<polygon style="fill:#CCD2ED;" points="173.641,311.007 142.689,305.05 141.689,304.05 152.769,258.173 153.769,259.173 					
						"/>
					
						<rect x="147.755" y="262.492" transform="matrix(0.9721 0.2347 -0.2347 0.9721 71.7621 -30.6698)" style="fill:#B8C4E8;" width="33.899" height="47.196"/>
					<g>
						<path style="fill:#FFFFFF;" d="M175.955,313.949l-32.951-7.958c0,0,7.086-29.904,8.337-34.52c0,0,2.116-5.26,6.026-7.217
							c2.216-1.109,5.129-1.736,7.653-1.498l22.015,5.317L175.955,313.949z"/>
						<g>
							<line style="fill:none;stroke:#EDEEF7;stroke-miterlimit:10;" x1="172.735" y1="309.04" x2="148.125" y2="303.356"/>
							<line style="fill:none;stroke:#EDEEF7;stroke-miterlimit:10;" x1="173.404" y1="306.356" x2="148.794" y2="300.672"/>
							<line style="fill:none;stroke:#EDEEF7;stroke-miterlimit:10;" x1="174.072" y1="303.673" x2="149.462" y2="297.988"/>
							<line style="fill:none;stroke:#EDEEF7;stroke-miterlimit:10;" x1="174.741" y1="300.989" x2="150.131" y2="295.304"/>
							<line style="fill:none;stroke:#EDEEF7;stroke-miterlimit:10;" x1="175.41" y1="298.305" x2="150.8" y2="292.621"/>
							<line style="fill:none;stroke:#EDEEF7;stroke-miterlimit:10;" x1="176.078" y1="295.621" x2="151.468" y2="289.937"/>
							<line style="fill:none;stroke:#EDEEF7;stroke-miterlimit:10;" x1="176.747" y1="292.938" x2="152.137" y2="287.253"/>
							<line style="fill:none;stroke:#EDEEF7;stroke-miterlimit:10;" x1="177.415" y1="290.254" x2="152.806" y2="284.569"/>
							<line style="fill:none;stroke:#EDEEF7;stroke-miterlimit:10;" x1="178.084" y1="287.57" x2="153.474" y2="281.885"/>
							<line style="fill:none;stroke:#EDEEF7;stroke-miterlimit:10;" x1="178.753" y1="284.886" x2="154.143" y2="279.202"/>
							<line style="fill:none;stroke:#EDEEF7;stroke-miterlimit:10;" x1="179.421" y1="282.202" x2="154.812" y2="276.518"/>
							<line style="fill:none;stroke:#EDEEF7;stroke-miterlimit:10;" x1="180.09" y1="279.519" x2="155.48" y2="273.834"/>
							<line style="fill:none;stroke:#EDEEF7;stroke-miterlimit:10;" x1="180.759" y1="276.835" x2="156.149" y2="271.15"/>
							<line style="fill:none;stroke:#EDEEF7;stroke-miterlimit:10;" x1="181.428" y1="274.151" x2="156.818" y2="268.466"/>
							<line style="fill:none;stroke:#EDEEF7;stroke-miterlimit:10;" x1="177.538" y1="269.031" x2="164.113" y2="266"/>
						</g>
						<g>
							<path style="fill:#EDEEF7;" d="M157.366,264.254c-3.91,1.957-6.026,7.217-6.026,7.217s4.923-5.005,9.773-4.665
								c0.085-2.553,3.906-4.051,3.906-4.051C162.495,262.518,159.582,263.146,157.366,264.254z"/>
						</g>
					</g>
				</g>
				<path style="fill:#F7633A;" d="M168.969,217.418c6.968,0.626,14.669,3.282,18.677,8.314c7.891,9.908,13.922,21.03,13.922,21.03
					l-18.884,13.328L168.969,217.418z"/>
				<path style="fill:none;stroke:#AA260C;stroke-width:0.75;stroke-miterlimit:10;" d="M187.645,256.443
					c-1.113-8.854-3.529-20.191-3.529-20.191"/>
				
					<line style="fill:none;stroke:#AA260C;stroke-width:0.75;stroke-miterlimit:10;" x1="187.031" y1="252.089" x2="199.783" y2="243.258"/>
				<g>
					<g>
						<path style="fill:#FFCBC2;" d="M136.529,258.368c0,0-6.571,14.429-6.075,17.863c0.374,2.591,21.594,8.976,21.594,8.976
							l-1.045,14.571c0,0-38.709-3.289-43.207-11.053c-6.157-10.627,6.828-38.135,6.828-38.135"/>
						<g>
							<g>
								<g>
									<path style="fill:#FFCBC2;" d="M147.556,284.331c3.174,0.558,19.888,3.95,19.688,4.796c-0.193,0.814-5.1,0.655-4.954,1.118
										c0.208,0.658,3.839,1.538,5.92,1.844c1.856,0.273,4.792,1.015,4.778,1.838c-0.027,1.565-10.192-0.06-10.192-0.06
										s11.258-0.296,11.37,1.016c0.163,1.891-11.763,1.757-12.183,2.17c0,0,10.373-2.754,10.494-1.355
										c0.12,1.4-9.081,4.089-11.924,3.891c2.362-0.276,9.572-3.786,9.626-2.496c0.054,1.29-6.187,3.109-7.186,3.185
										c-8.204,0.62-15.645-1.159-15.645-1.159"/>
								</g>
							</g>
						</g>
						<g>
							<path style="fill:#F7958B;" d="M171.848,294.53c-1.34,0.143-2.677,0.125-4.01,0.056c-0.666-0.046-1.333-0.094-1.995-0.19
								c-0.663-0.091-1.326-0.195-1.978-0.371c1.345-0.053,2.672-0.008,4.002,0.062C169.195,294.176,170.523,294.284,171.848,294.53
								z"/>
						</g>
						<g>
							<path style="fill:#F7958B;" d="M170.649,296.271c-1.415,0.369-2.859,0.557-4.31,0.66c-0.726,0.041-1.454,0.07-2.184,0.033
								c-0.728-0.033-1.462-0.087-2.173-0.267C164.882,296.577,167.727,296.258,170.649,296.271z"/>
						</g>
						<g>
							<path style="fill:#F7958B;" d="M168.794,297.932c-1.24,0.409-2.515,0.648-3.798,0.821c-0.643,0.075-1.288,0.144-1.938,0.157
								c-0.649,0.017-1.302,0.017-1.95-0.076c1.284-0.224,2.548-0.408,3.825-0.576C166.211,298.105,167.489,297.958,168.794,297.932
								z"/>
						</g>
					</g>
				</g>
				<path style="fill:#F7633A;" d="M152.048,215.954c-7.929-0.127-15.659,1.358-20.607,5.034
					c-9.252,6.873-18.095,29.601-18.095,29.601l25.698,9.948l11.191-21.776"/>
				
					<line style="fill:none;stroke:#AA260C;stroke-width:0.75;stroke-miterlimit:10;" x1="137.261" y1="260.091" x2="145.922" y2="245.083"/>
				
					<line style="fill:none;stroke:#AA260C;stroke-width:0.75;stroke-miterlimit:10;" x1="139.704" y1="255.857" x2="115.599" y2="245.839"/>
				<path style="fill:none;stroke:#AA260C;stroke-width:0.75;stroke-miterlimit:10;" d="M148.626,215.974
					c0,0,4.347,5.688,13.065,5.688s9.659-3.952,9.659-3.952"/>
				<g>
					<path style="fill:#FFCBC2;" d="M221.771,235.999c0,0,12.627-15.844,13.492-15.781c0.865,0.063-0.79,2.942-0.07,2.861
						c0.72-0.081,4.565-6.489,5.412-6.195c1.148,0.398-2.505,6.08-2.505,6.08s1.004-1.063,1.9-0.429
						c0.635,0.449-0.044,2.199-0.044,2.199s1.038-0.611,1.687-0.132c0.644,0.476,0.001,1.981,0.001,1.981s1.016-1.223,1.72-0.213
						c0.66,0.946-2.706,9.636-8.597,19.146"/>
				</g>
				<path style="fill:none;stroke:#F7958B;stroke-width:0.5;stroke-miterlimit:10;" d="M234.349,224.507
					c0,0-0.479,3.172-1.411,5.753"/>
				<g>
					<path style="fill:#F7958B;" d="M243.084,228.377c-0.485,0.745-0.991,1.477-1.543,2.178c-0.275,0.351-0.563,0.693-0.883,1.013
						c-0.16,0.159-0.326,0.316-0.528,0.444c-0.165,0.119-0.489,0.294-0.779,0.053c-0.195-0.288-0.111-0.531-0.094-0.761
						c0.039-0.23,0.099-0.45,0.165-0.667c0.136-0.432,0.299-0.85,0.473-1.263c0.353-0.824,0.731-1.631,1.157-2.42l0.372,0.213
						c-0.52,0.868-1.063,1.713-1.659,2.534c-0.301,0.408-0.61,0.811-0.973,1.188c-0.187,0.186-0.37,0.372-0.645,0.519
						c-0.125,0.064-0.341,0.157-0.587,0.031c-0.245-0.163-0.255-0.382-0.272-0.521c-0.022-0.596,0.143-1.068,0.285-1.564
						c0.154-0.486,0.329-0.961,0.514-1.431c0.372-0.939,0.777-1.858,1.21-2.771l0.399,0.2c-0.5,0.907-1.013,1.801-1.6,2.656
						c-0.294,0.427-0.598,0.849-0.949,1.243c-0.178,0.196-0.363,0.388-0.602,0.548c-0.124,0.07-0.27,0.16-0.479,0.127
						c-0.235-0.045-0.32-0.286-0.33-0.418c-0.003-1.131,0.45-2.055,0.805-3.025c0.386-0.955,0.808-1.893,1.253-2.819
						c-0.393,0.949-0.761,1.909-1.092,2.879c-0.165,0.485-0.316,0.975-0.449,1.466c-0.123,0.482-0.268,1.007-0.218,1.452
						c0.02,0.111,0.055,0.158,0.091,0.156c0.048,0.01,0.149-0.03,0.239-0.091c0.185-0.132,0.356-0.316,0.516-0.505
						c0.321-0.383,0.606-0.806,0.881-1.233c0.543-0.86,1.063-1.745,1.539-2.645l0.399,0.201c-0.417,0.903-0.811,1.824-1.168,2.752
						c-0.331,0.913-0.728,1.911-0.756,2.781c-0.001,0.103,0.046,0.164,0.023,0.139c-0.018-0.002,0.042,0.011,0.131-0.04
						c0.171-0.086,0.355-0.254,0.521-0.42c0.338-0.342,0.645-0.733,0.942-1.128c0.591-0.795,1.141-1.633,1.66-2.479l0.372,0.213
						c-0.419,0.774-0.838,1.557-1.204,2.358c-0.183,0.4-0.356,0.806-0.5,1.217c-0.07,0.206-0.134,0.414-0.175,0.62
						c-0.039,0.194-0.061,0.442,0.011,0.53c0.058,0.056,0.262,0.041,0.436-0.091c0.176-0.106,0.348-0.242,0.509-0.388
						c0.326-0.29,0.63-0.613,0.921-0.946C242.013,229.795,242.559,229.093,243.084,228.377z"/>
				</g>
			</g>
		</g>
	</g>
</g>
</svg>
